<svg width="33" height="8" viewBox="0 0 33.5 7.36396" fill="none" xmlns="http://www.w3.org/2000/svg">
<path d="M2 2.18198C1.16667 2.18198 0.5 2.84865 0.5 3.68198C0.5 4.51531 1.16667 5.18198 2 5.18198C2.83333 5.18198 3.5 4.51531 3.5 3.68198C3.5 2.84865 2.83333 2.18198 2 2.18198Z" fill="#FF6F47"/>
<path d="M33.3536 4.03553C33.5488 3.84027 33.5488 3.52369 33.3536 3.32843L30.1716 0.146447C29.9763 -0.0488155 29.6597 -0.0488155 29.4645 0.146447C29.2692 0.341709 29.2692 0.658291 29.4645 0.853554L32.2929 3.68198L29.4645 6.51041C29.2692 6.70567 29.2692 7.02225 29.4645 7.21751C29.6597 7.41278 29.9763 7.41278 30.1716 7.21751L33.3536 4.03553ZM0.5 3.68198H1C1 3.12479 1.44281 2.68198 2 2.68198V2.18198V1.68198C0.890524 1.68198 0 2.5725 0 3.68198H0.5ZM2 2.18198V2.68198C2.55719 2.68198 3 3.12479 3 3.68198H3.5H4C4 2.5725 3.10948 1.68198 2 1.68198V2.18198ZM3.5 3.68198H3C3 4.23917 2.55719 4.68198 2 4.68198V5.18198V5.68198C3.10948 5.68198 4 4.79146 4 3.68198H3.5ZM2 5.18198V4.68198C1.44281 4.68198 1 4.23917 1 3.68198H0.5H0C0 4.79146 0.890524 5.68198 2 5.68198V5.18198ZM3.5 3.68198V4.18198H33V3.68198V3.18198H3.5V3.68198Z" fill="#FF6F47"/>
</svg>
