<svg width="75" height="26" viewBox="0 0 75 26" fill="none" xmlns="http://www.w3.org/2000/svg">
<path fill-rule="evenodd" clip-rule="evenodd" d="M12.5575 0H13.3768L13.3994 0.000752874C16.2217 0.0948828 18.9195 1.10655 21.0958 2.85757C23.272 1.10655 25.9698 0.0948828 28.7922 0.000752874L28.8147 0H29.6341L29.6566 0.000752874C32.479 0.0948828 35.1768 1.10655 37.353 2.85757C39.5293 1.10655 42.2271 0.0948828 45.0495 0.000752874L45.072 0H45.8914L45.9139 0.000752874C48.7363 0.0948829 51.4341 1.10655 53.6103 2.85757C55.7866 1.10655 58.4844 0.0948829 61.3067 0.000752874L61.3293 0H62.1486L62.1712 0.000752874C65.571 0.114142 68.79 1.55892 71.1345 4.02364C73.4789 6.48836 74.761 9.77563 74.7043 13.1768C74.6476 16.578 73.2567 19.8207 70.8314 22.2059C68.4061 24.5911 65.1406 25.9278 61.739 25.9278C58.7695 25.9278 55.9039 24.9092 53.6103 23.0638C51.3167 24.9092 48.4511 25.9278 45.4817 25.9278C42.5123 25.9278 39.6466 24.9092 37.353 23.0638C35.0595 24.9092 32.1938 25.9278 29.2244 25.9278C26.255 25.9278 23.3893 24.9092 21.0958 23.0638C18.8022 24.9092 15.9366 25.9278 12.9671 25.9278C9.56547 25.9278 6.30002 24.5911 3.87472 22.2059C1.44943 19.8207 0.058506 16.578 0.00180382 13.1768C-0.0548983 9.77563 1.22716 6.48836 3.5716 4.02364C5.91605 1.55892 9.13512 0.114141 12.5349 0.000752874L12.5575 0ZM23.0312 21.1376C24.804 22.4804 26.9766 23.2182 29.2244 23.2182C31.4722 23.2182 33.6448 22.4804 35.4176 21.1376C33.5952 18.8946 32.565 16.094 32.5164 13.1768C32.4653 10.1143 33.4997 7.14419 35.4177 4.78373C33.7449 3.51675 31.7116 2.7849 29.5882 2.70955H28.8606C26.7372 2.7849 24.7039 3.51675 23.0312 4.78373C24.9491 7.14419 25.9835 10.1143 25.9324 13.1768C25.8838 16.094 24.8537 18.8946 23.0312 21.1376ZM21.0958 6.70418C22.5055 8.53569 23.2621 10.7998 23.2233 13.1317C23.1863 15.3483 22.4329 17.4799 21.0958 19.2172C19.7586 17.4799 19.0052 15.3483 18.9683 13.1317C18.9294 10.7998 19.686 8.53569 21.0958 6.70418ZM19.1604 4.78373C17.2424 7.14419 16.208 10.1143 16.2591 13.1768C16.3077 16.094 17.3379 18.8946 19.1604 21.1376C17.3875 22.4804 15.2149 23.2182 12.9671 23.2182C10.2763 23.2182 7.69315 22.1609 5.77463 20.2741C3.85611 18.3873 2.75583 15.8221 2.71097 13.1317C2.66612 10.4412 3.68028 7.84079 5.53485 5.89108C7.38438 3.94666 9.92203 2.80469 12.6033 2.70955H13.3309C15.4543 2.7849 17.4876 3.51675 19.1604 4.78373ZM37.353 6.70418C35.9433 8.5357 35.1867 10.7998 35.2255 13.1317C35.2625 15.3483 36.0159 17.4799 37.353 19.2172C38.6902 17.4799 39.4436 15.3483 39.4806 13.1317C39.5194 10.7998 38.7628 8.5357 37.353 6.70418ZM39.2885 21.1376C41.0613 22.4804 43.2339 23.2182 45.4817 23.2182C47.7295 23.2182 49.9021 22.4804 51.6749 21.1376C49.8524 18.8946 48.8223 16.094 48.7737 13.1768C48.7226 10.1143 49.7569 7.1442 51.6749 4.78374C50.0021 3.51675 47.9689 2.7849 45.8455 2.70955H45.1179C42.9945 2.7849 40.9612 3.51675 39.2884 4.78373C41.2064 7.14419 42.2408 10.1143 42.1897 13.1768C42.1411 16.094 41.1109 18.8946 39.2885 21.1376ZM53.6103 6.70419C52.2006 8.5357 51.4439 10.7998 51.4828 13.1317C51.5198 15.3483 52.2732 17.4799 53.6103 19.2172C54.9475 17.4799 55.7009 15.3483 55.7378 13.1317C55.7767 10.7998 55.0201 8.5357 53.6103 6.70419ZM55.5457 21.1376C57.3186 22.4804 59.4912 23.2182 61.739 23.2182C64.4298 23.2182 67.0129 22.1609 68.9315 20.2741C70.85 18.3873 71.9503 15.8221 71.9951 13.1317C72.04 10.4412 71.0258 7.84079 69.1712 5.89108C67.3217 3.94666 64.7841 2.80469 62.1028 2.70955H61.3752C59.2518 2.7849 57.2185 3.51675 55.5457 4.78374C57.4637 7.1442 58.4981 10.1143 58.447 13.1768C58.3984 16.094 57.3682 18.8946 55.5457 21.1376Z" fill="black"/>
</svg>
