<svg width="81" height="31" viewBox="0 0 81 31" fill="none" xmlns="http://www.w3.org/2000/svg">
<path d="M40.0381 0C17.8145 0 0 6.66131 0 15.0131C0 23.314 17.9613 30.0267 40.0381 30.0267C62.1154 30.0267 80.0768 23.2914 80.0768 15.0131C80.0768 6.7347 62.1154 0 40.0381 0Z" fill="black"/>
<path d="M55.8091 18.1936C55.8199 18.2624 55.9101 18.3282 55.9975 18.3594C56.0297 18.3701 56.0455 18.3916 56.0118 18.4647C55.7626 18.9991 55.5333 19.3071 55.2208 19.7715C54.9332 20.2005 54.6094 20.5352 54.2174 20.8571C53.626 21.3465 52.8048 21.8792 52.1258 21.5211C51.8243 21.3646 51.6937 20.9425 51.6996 20.6008C51.7139 19.6399 52.1414 18.6535 52.9307 17.684C53.893 16.4993 54.9567 15.8848 55.6549 16.2207C56.3772 16.5652 56.1467 17.4015 55.8232 18.0579C55.7981 18.1088 55.7981 18.1517 55.8089 18.1933M63.56 10.7065C63.612 10.6148 63.5573 10.5479 63.4415 10.5479C62.8382 10.5479 62.0466 10.5492 61.418 10.5492C61.2683 10.5492 61.1909 10.5671 61.1204 10.7068C60.8883 11.1513 58.0607 15.3891 57.5344 16.2121C57.4456 16.3374 57.3374 16.3198 57.3249 16.1762C57.2715 15.6874 56.8494 15.1256 56.1843 14.8567C55.6775 14.6512 55.182 14.6139 54.6669 14.6823C53.7368 14.8073 52.9083 15.2979 52.1799 15.8512C51.0819 16.6858 50.1347 17.7676 48.9119 18.5669C48.2444 19.0021 47.3302 19.3815 46.7185 18.8151C46.165 18.3019 46.2275 17.162 47.0745 16.2803C47.1637 16.1879 47.2708 16.266 47.2539 16.348C47.1741 16.7467 47.2718 17.1432 47.5748 17.4212C47.9443 17.7525 48.4731 17.7899 48.9258 17.5688C49.4599 17.3041 49.7737 16.7931 49.8652 16.2131C50.0067 15.3134 49.3142 14.5199 48.4476 14.4562C47.7436 14.4068 47.0685 14.6517 46.4107 15.1947C46.0808 15.4683 45.8935 15.6704 45.6083 16.076C45.5388 16.176 45.4321 16.1859 45.4353 16.0384C45.4675 14.8865 44.9916 14.2384 44.0393 14.2173C43.3 14.1994 42.5104 14.6007 41.8949 15.0914C41.2201 15.6333 40.6301 16.3515 39.9976 17.0262C39.9188 17.1093 39.8504 17.1054 39.8282 16.9442C39.8103 16.181 39.6173 15.4418 39.2641 14.9168C39.1391 14.7342 38.876 14.6439 38.6549 14.7671C38.5529 14.823 38.1978 14.9863 37.9393 15.1944C37.8111 15.3001 37.7609 15.453 37.8178 15.649C38.1588 16.7893 38.0839 18.0857 37.6212 19.1806C37.1964 20.1834 36.3709 21.0878 35.4006 21.394C34.7614 21.5967 34.097 21.4975 33.6858 20.9308C33.1211 20.1487 33.3491 18.7885 34.1909 17.6592C34.9338 16.6647 36.0084 16.033 37.0802 15.6262C37.2063 15.5775 37.2324 15.4966 37.1966 15.3895C37.1386 15.2133 37.0455 14.9733 37.0079 14.8638C36.9094 14.602 36.6342 14.5597 36.2981 14.5962C35.5193 14.6868 34.8167 14.9537 34.1228 15.3253C32.3055 16.2984 31.3944 18.1817 30.9952 19.1893C30.8029 19.6734 30.6385 19.9753 30.426 20.243C30.1395 20.6031 29.7799 20.9309 29.1223 21.5084C29.0629 21.5614 29.0185 21.6717 29.0686 21.7745C29.1356 21.9134 29.4776 22.3964 29.5741 22.4395C29.6812 22.4922 29.8054 22.418 29.8552 22.3829C30.3153 22.071 30.8659 21.5766 31.1352 21.2413C31.2298 21.1263 31.3269 21.1747 31.377 21.3491C31.6284 22.246 32.2867 22.9784 33.197 23.2848C34.8632 23.8467 36.5915 23.0334 37.896 21.6174C38.7251 20.7174 39.0242 20.1386 39.342 19.7452C39.8806 19.0779 40.9429 17.5852 42.2082 16.6268C42.6723 16.2733 43.2213 16.0037 43.4975 16.1828C43.7192 16.3264 43.7908 16.6601 43.4352 17.3068C42.1451 19.6626 40.247 22.4304 39.8989 23.1016C39.8351 23.2179 39.8917 23.3096 40.0128 23.3096C40.6879 23.3063 41.357 23.308 41.9698 23.308C42.0719 23.3044 42.1174 23.2564 42.1686 23.1844C43.1587 21.6347 44.0904 20.1597 45.089 18.6347C45.1449 18.5448 45.1965 18.6132 45.1986 18.6526C45.2201 19.0064 45.306 19.4903 45.5163 19.8081C45.8938 20.3956 46.4287 20.6481 47.0221 20.6519C47.4941 20.6591 47.733 20.5856 48.2421 20.3955C48.6563 20.2418 48.9888 20.0402 49.2441 19.8577C49.3931 19.7539 49.4192 19.9276 49.4156 19.9541C49.1864 21.1844 49.4694 22.6421 50.6921 23.2465C52.1554 23.968 53.7629 22.9539 54.688 22.0385C54.7786 21.9504 54.8756 21.9597 54.8849 22.1498C54.9064 22.4994 55.0625 22.9141 55.3517 23.2044C56.1269 23.9823 57.6911 23.674 59.2608 22.459C60.2687 21.6811 61.3232 20.582 62.2758 19.4182C62.3116 19.3731 62.3374 19.3008 62.2686 19.2273C62.1236 19.0755 61.9137 18.9018 61.7699 18.768C61.7043 18.7122 61.608 18.7283 61.5529 18.77C60.5764 19.6986 59.6975 20.7576 58.4272 21.6334C57.9987 21.9324 57.3159 22.1737 57.0092 21.7584C56.8896 21.5972 56.9033 21.3744 57.02 21.0819C57.3903 20.1583 63.2543 11.2304 63.5587 10.7039" fill="white"/>
<path d="M35.9707 11.784C35.9958 11.9165 36.0474 11.9423 36.1076 11.9312C36.4062 11.8714 36.7331 11.6257 36.9266 11.3409C37.1029 11.0827 37.1855 10.7101 37.0104 10.5608C36.8543 10.4265 36.6 10.4644 36.4116 10.6309C36.0362 10.9626 35.9222 11.4331 35.9706 11.7842M21.025 23.2763C18.8386 23.2907 16.9124 21.9404 16.6913 19.6013C16.5685 18.3051 16.9349 17.1499 17.6684 16.1982C18.3192 15.3502 19.4206 14.6457 20.3528 14.4736C20.6561 14.4181 21.0637 14.4521 21.2322 14.6541C21.4965 14.9617 21.4205 15.2997 21.1562 15.4345C20.445 15.7976 19.5892 16.4193 19.1658 17.2681C18.8223 17.961 18.753 18.7959 19.2775 19.5914C20.1556 20.917 22.6031 20.9535 24.8788 18.8393C25.4423 18.3219 25.9467 17.8247 26.4593 17.2359C27.4616 16.0899 27.795 15.6723 29.1273 13.8242C29.1417 13.8027 29.1488 13.7747 29.1417 13.7611C29.1309 13.7361 29.1131 13.7325 29.0733 13.7289C28.1839 13.754 27.4084 14.0186 26.6547 14.5819C26.4377 14.7402 26.1253 14.718 25.9885 14.5096C25.8363 14.2739 25.9456 13.9671 26.1959 13.7939C27.4084 12.9507 28.7329 12.7977 30.0855 12.5695C30.0844 12.5695 30.1794 12.573 30.2567 12.4713C30.812 11.7587 31.2312 11.1159 31.8232 10.3952C32.4196 9.66404 33.1899 8.99259 33.7785 8.48824C34.6001 7.78179 35.127 7.54406 35.6625 7.25268C35.8036 7.17891 35.6446 7.09082 35.6016 7.09082C32.612 6.52891 29.5044 5.8018 26.5353 6.90098C24.479 7.66834 23.5778 9.29901 24.0113 10.3886C24.3196 11.1615 25.3362 11.2872 26.2879 10.8215C27.0783 10.4342 27.8098 9.81001 28.3283 9.0065C28.6184 8.56027 29.2297 8.88222 28.8994 9.65707C28.0306 11.6992 26.3707 13.3191 24.3488 13.3875C22.6281 13.4433 21.5179 12.1774 21.5215 10.6157C21.5287 7.53545 24.9578 5.50639 28.5616 5.20306C32.9016 4.84439 37.0123 6.00046 41.3215 6.52315C44.6231 6.92297 47.7885 6.93129 51.1071 6.16893C51.4994 6.0837 51.7747 6.33403 51.7491 6.73026C51.7169 7.30302 51.2731 7.85464 50.1802 8.45075C48.9371 9.13249 47.6367 9.33935 46.2785 9.35045C42.9944 9.3791 39.9353 8.09765 36.7696 7.40979C36.7732 7.54839 36.8097 7.71346 36.6937 7.80095C34.9402 9.09434 33.3552 10.4078 32.2936 12.2526C32.2578 12.2952 32.2757 12.3357 32.3391 12.3314C33.2608 12.2823 34.0896 12.2586 34.9501 12.1899C35.1005 12.1756 35.1062 12.1397 35.0929 12.0301C35.0167 11.3943 35.2025 10.6692 35.7619 10.1704C36.3343 9.65714 37.0511 9.59878 37.5263 9.96844C38.0665 10.3894 38.0187 11.1464 37.7232 11.7142C37.4224 12.2902 36.9256 12.5983 36.4488 12.7479C36.4488 12.7479 36.3485 12.7694 36.3635 12.8604C36.3814 13.0058 37.0319 13.3658 37.0875 13.4617C37.1412 13.553 37.1126 13.6945 37.0148 13.803C36.9461 13.8818 36.8383 13.9556 36.7004 13.9531C36.589 13.9509 36.5214 13.9123 36.3788 13.8353C36.0873 13.6773 35.723 13.4177 35.4799 13.1115C35.3972 13.008 35.3549 13.0059 35.1483 13.0174C34.2172 13.0711 32.7653 13.2115 31.7816 13.3343C31.5431 13.363 31.508 13.4084 31.4589 13.4912C29.8906 16.0774 28.216 18.8664 26.3774 20.7336C24.4053 22.7357 22.766 23.2628 21.0258 23.2765" fill="white"/>
<path d="M40.0382 2.45503C19.5931 2.45503 3.02088 8.10466 3.02088 15.0179C3.02088 21.9317 19.5931 27.5818 40.0382 27.5818C60.4829 27.5818 77.0541 21.9317 77.0541 15.0179C77.0541 8.10466 60.4829 2.45503 40.0382 2.45503ZM40.0382 28.7203C18.8489 28.7203 1.67188 22.5856 1.67188 15.0179C1.67188 7.44907 18.8489 1.31543 40.0382 1.31543C61.2255 1.31543 78.4014 7.44907 78.4014 15.0179C78.4014 22.5856 61.2255 28.7203 40.0382 28.7203" fill="white"/>
</svg>
