<svg width="82" height="36" viewBox="0 0 82 36" fill="none" xmlns="http://www.w3.org/2000/svg">
<g clip-path="url(#clip0_41_11781)">
<path d="M81.0243 8.26009H55.4687C52.3108 3.29697 46.7632 0 40.4426 0C34.1221 0 28.5769 3.29697 25.4166 8.26009H0L2.58526 10.8524H24.0497C23.6538 11.7857 23.338 12.7637 23.1047 13.77H5.49809L8.08334 16.3623H22.7041C22.6664 16.8383 22.6404 17.3191 22.6404 17.8046C22.6404 18.29 22.6664 18.792 22.7064 19.2798H10.9962L13.5814 21.8722H23.1141C23.3498 22.8808 23.6679 23.8565 24.0662 24.7897H16.4943L19.0795 27.382H25.4378C28.6004 32.3287 34.1362 35.6091 40.4426 35.6091C46.7491 35.6091 52.2849 32.3263 55.4475 27.382H61.9448L64.5301 24.7897H56.8214C57.2197 23.8565 57.5379 22.8808 57.7735 21.8722H67.4429L70.0282 19.2798H58.1789C58.2189 18.792 58.2449 18.3018 58.2449 17.8046C58.2449 17.3073 58.2189 16.8383 58.1812 16.3623H72.9386L75.5239 13.77H57.7782C57.5449 12.7637 57.2315 11.7857 56.8332 10.8524H78.4344L81.0196 8.26009H81.0243ZM40.5133 33.0333C32.1189 33.0333 25.3129 26.2273 25.3129 17.8328C25.3129 9.43842 32.1166 2.63239 40.5133 2.63239C48.9101 2.63239 55.7138 9.43842 55.7138 17.8328C55.7138 26.2273 48.9078 33.0333 40.5133 33.0333Z" fill="#231F20"/>
<path d="M32.6952 20.0407L30.6308 13.8003H28.293V21.8177H29.9992V15.8718L31.802 21.8177H33.5719L35.3794 15.8718V21.8177H37.088V13.8003H34.7408L32.6952 20.0407Z" fill="#231F20"/>
<path d="M47.5748 19.6731L44.3603 13.8003H42.4727V21.8177H44.0587V16.197L47.2708 21.8648L49.1821 21.8177V13.8003H47.596L47.5748 19.6731Z" fill="#231F20"/>
<path d="M40.5753 13.7935H38.9492V21.8132H40.5753V13.7935Z" fill="#231F20"/>
<path d="M52.6613 13.7935H51.0352V21.8132H52.6613V13.7935Z" fill="#231F20"/>
</g>
<defs>
<clipPath id="clip0_41_11781">
<rect width="81.0243" height="35.6044" fill="white"/>
</clipPath>
</defs>
</svg>
