<svg width="82" height="6" viewBox="0 0 82 6" fill="none" xmlns="http://www.w3.org/2000/svg">
<path d="M9.03871 3.9792C9.90477 3.9792 10.3711 3.51286 10.3711 2.6468V1.3324C10.3711 0.46634 9.90477 0 9.03871 0H0V5.40162H1.22437V3.9792H9.03871ZM9.14675 1.40442V2.57477C9.14675 2.71522 9.07112 2.79084 8.93068 2.79084H1.22437V1.18836H8.93068C9.07112 1.18836 9.14675 1.26398 9.14675 1.40442ZM13.252 5.40162C12.3859 5.40162 11.9196 4.93528 11.9196 4.06922V1.3324C11.9196 0.46634 12.3859 0 13.252 0H20.7602C21.6263 0 22.0926 0.46634 22.0926 1.3324V4.06922C22.0926 4.93528 21.6263 5.40162 20.7602 5.40162H13.252ZM20.6522 4.21327C20.7926 4.21327 20.8683 4.13764 20.8683 3.9972V1.40442C20.8683 1.26398 20.7926 1.18836 20.6522 1.18836H13.36C13.2196 1.18836 13.1439 1.26398 13.1439 1.40442V3.9972C13.1439 4.13764 13.2196 4.21327 13.36 4.21327H20.6522ZM32.8059 3.56507C33.5233 3.86679 34.0276 4.57517 34.0302 5.40162H32.8059C32.8059 4.42933 32.3557 3.9792 31.3834 3.9792H24.8835V5.40162H23.6591V0H32.6978C33.5639 0 34.0302 0.46634 34.0302 1.3324V2.23519C34.0302 3.06452 33.6026 3.52726 32.8059 3.56507ZM32.5898 2.79084C32.7302 2.79084 32.8059 2.71522 32.8059 2.57477V1.40442C32.8059 1.26398 32.7302 1.18836 32.5898 1.18836H24.8835V2.79084H32.5898ZM35.5067 1.3324C35.5067 0.46634 35.973 0 36.8391 0H45.6977V1.0083H36.9471C36.8067 1.0083 36.731 1.08393 36.731 1.22437V1.98059C36.731 2.12104 36.8067 2.19666 36.9471 2.19666H44.5454C45.4114 2.19666 45.8778 2.663 45.8778 3.52906V4.06922C45.8778 4.93528 45.4114 5.40162 44.5454 5.40162H35.6867V4.39332H44.4373C44.5778 4.39332 44.6534 4.3177 44.6534 4.17725V3.42103C44.6534 3.28059 44.5778 3.20496 44.4373 3.20496H36.8391C35.973 3.20496 35.5067 2.73862 35.5067 1.87256V1.3324ZM47.4082 1.3324C47.4082 0.46634 47.8746 0 48.7406 0H57.3832V1.18836H48.8487C48.7082 1.18836 48.6326 1.26398 48.6326 1.40442V3.9972C48.6326 4.13764 48.7082 4.21327 48.8487 4.21327H57.3832V5.40162H48.7406C47.8746 5.40162 47.4082 4.93528 47.4082 4.06922V1.3324ZM68.7266 0V5.40162H67.5023V3.29499H60.1741V5.40162H58.9497V0H60.1741V2.10663H67.5023V0H68.7266ZM71.5355 1.0083V2.19666H81.0243V3.20496H71.5355V4.39332H81.0243V5.40162H70.3111V0H81.0243V1.0083H71.5355Z" fill="black"/>
</svg>
