<svg width="60" height="61" viewBox="0 0 60 61" fill="none" xmlns="http://www.w3.org/2000/svg">
<g clip-path="url(#clip0_41_11742)">
<path d="M47.7782 29.9999C47.7782 39.8248 39.8253 47.7777 30.0004 47.7777V29.9999H47.7782ZM30.0004 12.2222V29.9999H12.2227C12.2227 20.1751 20.1756 12.2222 30.0004 12.2222Z" fill="black"/>
<path d="M30.0004 12.2222C39.8253 12.2222 47.7782 20.1751 47.7782 29.9999H30.0004V12.2222ZM12.2227 29.9999H30.0004V47.7777C20.1756 47.7777 12.2227 39.8248 12.2227 29.9999Z" fill="white"/>
<path d="M30 12.2222V13.1969C39.2643 13.1969 46.803 20.7339 46.803 30H47.7778C47.7778 20.1822 39.8178 12.2222 30 12.2222ZM30 46.803C20.7357 46.803 13.197 39.2661 13.197 30H12.2222C12.2222 39.8178 20.1822 47.7778 30 47.7778M30 0C13.4319 0 0 13.4319 0 30C0 46.5681 13.4319 60 30 60C46.5681 60 60 46.5681 60 30C60 13.4319 46.5681 0 30 0V0ZM58.0492 30C58.0492 45.4904 45.4921 58.0492 30 58.0492C14.5079 58.0492 1.95085 45.4904 1.95085 30C1.95085 14.5096 14.5096 1.95085 30 1.95085C45.4904 1.95085 58.0492 14.5096 58.0492 30V30Z" fill="black"/>
<path d="M17.1792 15.5273C18.1378 14.5245 18.6806 13.3659 17.7219 12.2599C17.2003 11.6596 16.3245 11.5283 15.5984 11.8241L15.5262 11.8521L15.5491 11.7891C15.6566 11.5038 15.7253 10.5938 14.9446 9.96548C14.564 9.65921 14.0864 9.54545 13.6036 9.59446C12.703 9.68546 12.0105 10.2962 10.1249 12.3841C9.55568 13.0142 8.72742 14.0082 8.23047 14.6523L13.4097 19.5315C15.1261 17.6449 15.8257 16.9431 17.1792 15.5273ZM10.4209 14.3337C11.4642 13.0667 12.5726 11.9168 13.0749 11.4618C13.2335 11.3183 13.4062 11.1748 13.6159 11.1188C13.956 11.026 14.3067 11.2658 14.386 11.6123C14.4653 11.9606 14.245 12.2914 14.0001 12.5644C13.4485 13.1822 11.4254 15.284 11.4254 15.284L10.4209 14.3337ZM12.4493 16.2448C12.4493 16.2448 14.4195 14.1762 15.0627 13.5147C15.3182 13.2522 15.4821 13.0929 15.6583 13.0072C15.8857 12.8969 16.1341 12.8741 16.3562 13.0212C16.5747 13.1664 16.6752 13.4167 16.6205 13.6652C16.5553 13.961 16.3121 14.2427 16.1112 14.458C15.8398 14.7468 13.5031 17.2302 13.4996 17.2337L12.4493 16.2448V16.2448ZM30.5916 9.70821L32.2499 6.019L32.3556 5.69173L32.3257 6.033L32.5001 10.963C33.0817 11.0173 33.6826 11.0978 34.2747 11.1958L34.0051 3.89437C33.1768 3.80337 32.3521 3.73862 31.5274 3.70361L29.8938 7.7306L29.8356 8.02987L29.7775 7.7306L28.1456 3.70361C27.3209 3.73862 26.4961 3.80337 25.6679 3.89437L25.3983 11.1958C25.9904 11.0978 26.5913 11.019 27.1729 10.963L27.3473 6.033L27.3174 5.69173L27.4231 6.019L29.0814 9.70821H30.5916H30.5916ZM44.3636 17.3404C44.7706 17.7744 45.3575 18.4745 45.687 18.8997L51.7562 15.074C51.4531 14.6803 50.9702 14.0817 50.609 13.6599L46.7655 16.1836L46.5029 16.4076L46.6985 16.1241L48.3956 12.7604L47.1955 11.5686L43.8067 13.2539L43.5212 13.4482L43.7485 13.1874L46.2915 9.37219C45.8439 8.99417 45.4139 8.64765 44.8658 8.22763L41.0135 14.2497C41.5017 14.6225 42.1449 15.1703 42.5555 15.5431L46.1822 13.6739L46.4148 13.5042L46.2439 13.7352L44.3636 17.3404Z" fill="black"/>
</g>
<defs>
<clipPath id="clip0_41_11742">
<rect width="60" height="60" fill="white"/>
</clipPath>
</defs>
</svg>
