<svg width="82" height="8" viewBox="0 0 82 8" fill="none" xmlns="http://www.w3.org/2000/svg">
<g clip-path="url(#clip0_41_11794)">
<path d="M0 5.04666H2.61698C2.61698 5.04666 2.73593 5.59045 3.43266 5.53947H8.27577C8.27577 5.53947 8.71759 5.57345 8.71759 5.11463C8.71759 4.62183 8.29276 4.67281 8.29276 4.67281H2.59998C1.66535 4.67281 0.237907 4.06105 0.237907 2.20877C0.237907 2.20877 0.390847 0.0166267 2.34508 0.0166267H8.71759C8.71759 0.0166267 11.0287 -0.01736 11.2326 2.41269H8.7006C8.7006 2.41269 8.58165 1.97086 8.20779 1.97086H3.21174C3.21174 1.97086 2.73593 1.98786 2.73593 2.3957C2.73593 2.3957 2.68495 2.82053 3.17776 2.82053H8.66661C8.66661 2.82053 11.1986 2.75256 11.2666 5.16561C11.2666 5.16561 11.4025 7.5107 8.66661 7.5107H2.51502C2.51502 7.5107 0 7.52769 0 5.04666Z" fill="black"/>
<path d="M11.793 0.0166016V1.98783H16.1093V7.51067H18.7263V1.98783H22.9406V0.0166016H11.793Z" fill="black"/>
<path d="M47.3438 0V7.51106H56.6051V5.53983H49.9437V0H47.3438Z" fill="black"/>
<path d="M57.7422 0V7.52806H58.201L68.38 7.51106V5.53983H60.3762V4.63919H67.7853V2.83789H60.3422V1.98822H68.38V0.0169934L57.7422 0Z" fill="black"/>
<path d="M80.8199 6.28715C80.8539 5.81134 80.7859 5.1486 80.514 4.75775C80.1232 4.17997 79.6304 3.99305 79.6304 3.99305C81.4317 3.22835 80.6839 1.39306 80.6839 1.39306C80.2931 0.135555 78.4918 0.0166016 78.1349 0.0166016H69.9102V7.51067H72.5441V5.19958C72.5441 5.19958 76.5036 5.19958 77.3702 5.19958C78.2879 5.19958 78.2879 6.13421 78.2879 6.13421C78.2709 7.47669 78.4408 7.51067 78.4408 7.51067H81.0238C80.8199 7.28976 80.7859 6.76296 80.8199 6.28715ZM77.8291 3.26233L72.5441 3.24534V2.08979L77.7781 2.10678C77.7781 2.10678 78.3559 2.12378 78.3219 2.68456C78.3049 2.70155 78.3389 3.26233 77.8291 3.26233Z" fill="black"/>
<path d="M43.2289 0.0166016H34.6133V7.51067H43.1779C44.1636 7.51067 46.5086 6.83094 46.5086 3.75514C46.5086 0.577382 44.0786 0.0166016 43.2289 0.0166016ZM42.3453 5.53944H37.2133V1.97084H42.4302C42.4302 1.97084 43.8067 1.97084 43.8067 3.84011C43.8067 5.57343 42.3453 5.53944 42.3453 5.53944Z" fill="black"/>
<path d="M29.2928 0.0166016H25.9621L21 7.51067H23.9908L24.8235 6.38911H30.3973L31.179 7.51067H34.1529L29.2928 0.0166016ZM26.098 4.51984L27.6274 2.15776L29.1908 4.51984H26.098Z" fill="black"/>
</g>
<defs>
<clipPath id="clip0_41_11794">
<rect width="81.0243" height="7.52806" fill="white"/>
</clipPath>
</defs>
</svg>
