<svg width="60" height="60" viewBox="0 0 60 60" fill="none" xmlns="http://www.w3.org/2000/svg">
<g clip-path="url(#clip0_41_11808)">
<path d="M30.0363 57.0638C15.1716 57.0638 2.99329 44.8258 2.99329 29.9611C2.99329 26.618 3.59026 23.4541 4.72452 20.4692L20.5444 52.288C20.7235 52.7059 21.022 53.0641 21.4995 53.0641C21.9771 53.0641 22.2756 52.7059 22.4547 52.288L29.7378 35.9905C29.7975 35.8115 29.9169 35.6324 30.096 35.6324C30.2751 35.6324 30.3348 35.8115 30.4542 35.9905L37.7373 52.288C37.9164 52.7059 38.2149 53.0641 38.6924 53.0641C39.17 53.0641 39.4685 52.7059 39.6476 52.288L55.4675 20.4692C56.6017 23.4541 57.1987 26.618 57.1987 29.9611C57.0793 44.8258 44.901 57.0638 30.0363 57.0638ZM30.0363 23.8122C29.8572 23.8122 29.7975 23.6332 29.6781 23.4541L21.201 4.35083C23.9471 3.33597 26.932 2.7987 30.0363 2.7987C33.1406 2.7987 36.1254 3.33597 38.8715 4.35083L30.3945 23.4541C30.2751 23.6928 30.2154 23.8122 30.0363 23.8122ZM21.3801 43.4527C21.201 43.4527 21.1414 43.2737 21.022 43.0946L7.29151 15.3949C9.73911 11.6339 13.0225 8.46997 17.0222 6.26116L26.932 28.2896C27.0514 28.6477 27.3499 28.7671 27.6484 28.7671H32.4242C32.7824 28.7671 33.0212 28.7074 33.2003 28.2896L43.1101 6.26116C47.0501 8.46997 50.3932 11.6339 52.8408 15.3949L38.9909 43.0946C38.9312 43.2737 38.8118 43.4527 38.6327 43.4527C38.4536 43.4527 38.394 43.2737 38.2746 43.0946L33.0809 31.2744C32.9018 30.8566 32.663 30.7969 32.3048 30.7969H27.529C27.1708 30.7969 26.932 30.8566 26.7529 31.2744L21.7383 43.0946C21.6786 43.2737 21.5592 43.4527 21.3801 43.4527ZM30.0363 59.8099C46.5725 59.8099 59.8851 46.4973 59.8851 29.9611C59.8851 13.4249 46.5725 0.112305 30.0363 0.112305C13.5001 0.112305 0.1875 13.4249 0.1875 29.9611C0.1875 46.4973 13.5001 59.8099 30.0363 59.8099Z" fill="black"/>
</g>
<defs>
<clipPath id="clip0_41_11808">
<rect width="60" height="60" fill="white"/>
</clipPath>
</defs>
</svg>
