<svg width="1200" height="316" viewBox="0 0 1200 316" fill="none" xmlns="http://www.w3.org/2000/svg">
<path d="M659.637 172.008C660.985 171.894 662.338 171.834 663.691 171.827C710.338 171.888 705.738 216.282 705.744 248.782L705.662 313.005L666.891 312.965C666.475 288.611 667.219 263.996 666.885 239.715C666.492 228.32 669.328 207.666 654.58 203.903C641.303 200.513 629.883 204.298 623.912 216.876C621.082 225.324 622.049 250.986 622.061 260.978L622.031 312.996L583.095 312.961C582.598 267.453 582.869 220.35 583.14 174.792C596.098 174.714 609.059 174.718 622.014 174.805L622.137 195.189C629.807 179.885 643.301 173.598 659.637 172.008Z" fill="black"/>
<path d="M776.742 133.205C777.873 137.432 777.012 168.162 776.994 174.649L803.338 174.838C803.408 184.389 803.397 193.942 803.291 203.493C796.418 203.721 783.569 203.9 776.988 203.505L776.953 247.149C776.936 271.626 771.82 289.881 804.029 282.354C804.141 292.312 804.141 302.271 804.024 312.228C795.58 314.867 786.68 315.055 777.914 314.938C735.223 312.108 738.082 284.888 738.088 252.024L738.111 203.648C732.727 203.726 727.342 203.656 721.963 203.438C721.805 194.013 721.945 184.248 721.963 174.798L737.983 174.724C738.393 167.082 738.111 156.786 738.129 148.946C750.779 144.225 763.84 138.14 776.742 133.205Z" fill="black"/>
<path d="M1051 173.7C1052.14 173.5 1056.76 173.447 1058.17 173.401C1058.24 186.138 1058.23 198.875 1058.14 211.612C1025.07 212.682 1015.78 219.884 1016.36 253.423C1016.68 272.572 1016.87 294.645 1016.22 313.778C1004.37 314.158 989.32 313.954 977.432 313.69L977.426 297.533L977.484 174.824C989.689 174.448 1004.15 174.671 1016.37 174.838L1016.43 200.129C1024.61 183.991 1032.59 176.526 1051 173.7Z" fill="black"/>
<path d="M4.35403 217.399C5.33678 211.064 6.16652 206.503 8.75139 200.639C22.7793 168.671 71.5611 165.761 98.9098 179.374C126.625 193.169 120.989 227.123 121.213 252.814C121.385 272.425 121.654 293.385 121.114 312.99L83.8207 312.959L83.7721 296.806C72.6937 309.792 66.6205 312.435 50.3001 316H40.1364C31.7651 313.687 25.2496 313.95 16.9332 308.536C5.59422 301.154 2.88837 293.483 0 281.312V267.48C2.34221 258.234 4.65107 250.575 12.0094 243.882C30.5012 227.062 58.9881 228.299 82.1742 228.379C82.2598 220.017 82.7941 211.215 76.4162 204.801C68.9127 197.256 53.682 197.967 46.3449 205.432C42.5952 209.247 41.8947 212.629 40.7804 217.575C29.5622 217.577 15.3358 217.986 4.35403 217.399ZM61.275 288.941C82.8422 283.952 82.435 273.016 82.2111 254.288C77.1809 254.216 63.59 253.862 59.0145 254.646C53.4721 255.204 44.4063 256.772 41.6288 261.671C31.2114 280.048 44.0759 290.711 61.275 288.941Z" fill="black"/>
<path d="M1130.57 316C1127.52 315.115 1121.09 314.492 1117.56 313.712C1106.81 311.55 1095.32 305.412 1087.75 297.428C1062.5 270.801 1063.91 213.574 1090.49 188.257C1103.12 176.239 1120.47 170.622 1137.7 171.103C1154.37 171.569 1171.18 176.317 1182.92 188.769C1200.24 207.126 1199.58 230.03 1199.11 253.407C1194.04 253.81 1187.6 253.827 1182.51 253.651C1158.69 252.831 1133.22 254.844 1109.57 253.424C1110.75 265.41 1113.73 280.733 1126.17 285.538C1142.85 291.99 1157.07 285.948 1164.16 270.276L1200 270.295V271.055C1194.08 288.683 1187.51 299.347 1170.41 308.429C1159.28 314.336 1153.34 313.25 1143.43 316H1130.57ZM1139.36 227.568L1161.01 227.518C1159.66 208.358 1152.96 197.301 1132.07 198.774C1131.78 198.795 1131.49 198.818 1131.21 198.845C1115.65 202.904 1112 213.324 1108.86 227.529L1139.36 227.568Z" fill="black"/>
<path d="M491.101 316C486.178 315.001 479.937 314.339 475.442 313.194C461.681 309.704 449.682 301.275 441.728 289.51C421.993 259.776 426.761 201.691 459.106 181.606C486.568 164.553 530.213 167.338 549.144 196.121C560.603 213.777 559.775 233.433 559.538 253.521C529.571 254.044 499.185 253.149 469.278 253.733C471.135 273.003 477.742 289.567 501.289 287.861C512.409 287.055 519.538 280.338 523.72 270.278C535.434 270.28 547.839 270.07 559.495 270.341C556.484 285.082 549.885 296.348 537.128 304.802C530.024 309.427 522.08 312.604 513.747 314.152C511.293 314.629 505.87 315.394 503.738 316H491.101ZM501.709 227.568L521.402 227.596C519.719 207.835 513.087 196.927 491.549 198.85L491.285 198.875C476.023 203.158 472.538 213.255 470.028 227.527L501.709 227.568Z" fill="black"/>
<path d="M826.969 174.791C839.929 174.701 852.885 174.709 865.845 174.815L865.892 237.598C865.881 257.536 859.886 295.514 895.142 284.612C914.642 278.583 909.111 251.292 909.978 236.045C910.447 215.711 909.644 195.147 909.984 174.797C922.904 174.707 935.818 174.713 948.732 174.813L948.826 260.25C948.826 277.372 949.189 295.989 948.756 313.01L910.67 312.955V292.607C902.912 304.83 895.851 311.371 881.262 314.639L875.226 316H865.623C851.97 313.04 842.965 310.842 834.498 298.019C831.287 293.159 828.328 284.896 827.783 279.156C826.506 265.777 826.717 250.075 826.881 236.466C827.127 216.132 826.476 194.992 826.969 174.791Z" fill="black"/>
<path d="M202.473 316C193.927 314.245 186.715 313.337 178.507 309.974C131.527 290.725 130.81 207.26 171.474 181.441C197.413 164.972 241.978 167.186 259.83 195.272C265.418 203.999 267.648 213.12 268.763 223.294C256.504 223.397 244.245 223.384 231.987 223.254C228.613 207.727 220.208 198.44 203.366 201.979C187.094 205.398 182.457 222.756 181.471 237.481C179.975 259.821 184.364 291.296 215.069 285.679C226.57 283.576 232.113 272.342 234.303 261.481C245.917 261.467 257.91 261.3 269.494 261.517C267.61 278.141 263.207 291.959 249.645 302.903C238.253 312.097 228.389 313.312 214.862 316H202.473Z" fill="black"/>
<path d="M346.517 316C337.876 314.289 330.184 313.475 322.02 309.773C288.856 295.022 282.228 256.087 288.266 223.741C295.532 184.812 330.306 164.935 368.134 172.609C396.218 178.306 409.387 195.681 412.698 223.283C400.769 223.34 387.81 223.595 375.971 223.249C374.33 216.025 371.676 208.079 365.125 204.312C353.724 197.943 338.329 201.941 331.756 213.549C323.611 227.934 324.07 247.817 327.101 263.627C330.087 279.2 343.038 289.491 359.14 285.676C370.937 282.88 375.921 272.57 378.297 261.473C389.781 261.467 401.866 261.267 413.301 261.516C411.319 289.025 396.191 308.506 368.744 314.153C365.782 314.762 361.672 315.223 358.898 316H346.517Z" fill="black"/>
<path d="M698.355 0H699.182C710.795 5.17525 724.014 10.0331 735.902 14.9025C762.814 25.9263 790.014 36.4851 816.844 47.7068L816.879 77.1984C778.535 93.4146 736.957 109.874 698.109 125.153C698.262 113.273 698.414 100.062 698.01 88.2549C708.691 83.7306 721.945 79.1847 732.973 75.0321C743.314 71.1358 757.09 65.6817 767.473 62.5551L698.232 36.1337C697.67 27.035 698.133 9.36169 698.355 0Z" fill="black"/>
</svg>
