<svg width="150" height="17" viewBox="0 0 150 17" fill="none" xmlns="http://www.w3.org/2000/svg">
<g clip-path="url(#clip0_4078_32532)">
<path d="M118.413 14.0579C118.413 15.8954 116.926 17.3537 115.118 17.3537C113.28 17.3537 111.822 15.8662 111.822 14.0579C111.822 12.2205 113.309 10.7622 115.118 10.7622C116.926 10.7622 118.413 12.2497 118.413 14.0579Z" fill="#EF3E42"/>
<path d="M43.3696 16.9162H31.9366L36.399 7.20397C37.0406 5.83317 37.1573 5.54151 37.8281 4.37488C36.6615 5.65818 36.4865 5.86234 35.524 6.88314L26.1909 16.9162H17.1787L17.0037 7.1748C17.0037 6.12483 16.9745 4.9582 17.0037 4.46238C16.5954 5.59984 16.5079 5.86234 15.9829 6.94147L11.4038 16.9162H0L7.99145 0H25.4326V6.88314C25.4035 8.16644 25.3743 8.3706 25.141 9.59557C26.2493 8.10811 26.5118 7.78728 27.5909 6.59148L33.5116 0H50.9819L43.3696 16.9162Z" fill="black"/>
<path d="M63.4939 9.44974H64.6897C66.9063 9.44974 68.9188 9.4789 68.9771 10.8789C69.0355 11.8705 68.2771 12.9496 66.8772 13.533C65.4772 14.0871 63.7564 14.0871 62.444 14.0871H61.3357L63.4939 9.44974ZM63.8148 16.9162C68.3063 16.9162 72.6812 16.9162 75.7436 16.0412C78.981 15.1371 81.5184 13.0371 81.4018 10.9664C81.256 8.48726 77.6102 8.07894 75.7144 7.84562C77.3186 7.61229 80.556 7.1748 82.3351 5.54151C83.1226 4.8707 83.4142 4.08322 83.3559 3.35407C83.3267 2.88742 83.2101 1.3708 79.9435 0.524985C78.1352 0.0583317 75.8894 0.0291659 72.5937 0H55.8817L48.1235 16.9162H63.8148ZM66.5564 2.82909H67.898C69.4729 2.82909 71.5729 2.85825 71.6604 4.17072C71.7187 5.04569 70.9021 5.92067 69.8229 6.32899C68.6563 6.79565 67.023 6.79564 65.7689 6.79564H64.7189L66.5564 2.82909Z" fill="black"/>
<path d="M113.718 0.583317C111.501 0.116663 108.993 0.0583317 105.056 0H90.0643L82.3062 16.9162H100.331C101.847 16.9162 103.393 16.9162 104.91 16.7995C107.476 16.6245 109.43 16.2162 110.976 15.6621C110.772 15.1662 110.655 14.6413 110.655 14.0871C110.655 11.6663 112.639 9.68307 115.059 9.68307C115.876 9.68307 116.634 9.91639 117.305 10.3247C118.297 8.51643 118.909 6.53315 118.851 5.10403C118.763 3.41241 118.005 1.54579 113.718 0.583317ZM106.893 6.41649C106.66 7.23313 106.31 8.07894 105.989 8.89559C105.551 9.82889 104.21 12.9788 101.001 13.7955C99.864 14.0871 98.4932 14.1163 97.0932 14.1163H95.9558L101.147 2.82909H102.431C104.764 2.85825 107.039 2.88742 107.126 4.6957C107.214 5.27902 107.039 5.83317 106.893 6.41649Z" fill="black"/>
<path d="M132.005 0L119.288 12.7163C119.434 13.1538 119.522 13.5913 119.522 14.0579C119.522 15.1371 119.113 16.1287 118.472 16.887H126.93L131.13 12.2205H138.129L137.809 16.887H150.029V0H132.005ZM138.334 8.89559H134.134L138.771 3.61657L138.334 8.89559Z" fill="black"/>
</g>
<defs>
<clipPath id="clip0_4078_32532">
<rect width="150" height="16.9162" fill="white"/>
</clipPath>
</defs>
</svg>
