<svg width="150" height="150" viewBox="0 0 150 150" fill="none" xmlns="http://www.w3.org/2000/svg">
<path d="M148.359 75C148.359 115.547 115.547 148.359 75 148.359C34.4531 148.359 1.64062 115.547 1.64062 75C1.64062 34.4531 34.4531 1.64062 75 1.64062C115.547 1.64062 148.359 34.4531 148.359 75ZM75 6.09375C36.7969 6.09375 6.09375 36.7969 6.09375 75C6.09375 113.203 37.0312 143.906 75 143.906C113.203 143.906 143.906 112.969 143.906 75C143.906 36.7969 113.203 6.09375 75 6.09375Z" fill="black"/>
<path d="M75 6.09375C36.7969 6.09375 6.09375 36.7969 6.09375 75C6.09375 113.203 37.0312 143.906 75 143.906C113.203 143.906 143.906 112.969 143.906 75C143.906 36.7969 113.203 6.09375 75 6.09375ZM75 139.453C39.375 139.453 10.5469 110.625 10.5469 75C10.5469 39.375 39.375 10.5469 75 10.5469C110.625 10.5469 139.453 39.375 139.453 75C139.453 110.625 110.625 139.453 75 139.453Z" fill="black"/>
<path d="M5.15625 75.2344C5.15625 36.7969 36.3281 5.15625 75 5.15625C113.672 5.15625 144.844 36.5625 144.844 75.2344C144.844 113.672 113.672 144.844 75 144.844C36.3281 144.844 5.15625 113.672 5.15625 75.2344ZM26.9531 26.9531C14.5312 39.375 6.79688 56.4844 6.79688 75.2344C6.79688 93.9844 14.5312 111.094 26.7187 123.281C39.1406 135.469 56.25 143.203 75 143.203C93.75 143.203 110.859 135.703 123.047 123.281C135.469 111.094 142.969 93.9844 142.969 75.2344C142.969 56.4844 135.234 39.375 123.047 26.9531C110.859 14.5312 93.75 6.79688 75 6.79688C56.25 6.79688 39.1406 14.5312 26.9531 26.9531Z" fill="black"/>
<path d="M131.953 105.469C130.781 104.531 85.5469 68.6719 85.5469 68.6719L75 8.4375C74.2969 8.67188 73.3594 9.375 72.8906 10.3125L65.3906 68.9062L18.75 104.766C18.75 104.766 17.8125 105.938 17.3437 106.641C17.1094 107.109 17.1094 107.812 17.1094 108.516L74.7656 84.8438L132.422 108.516C132.891 107.344 132.422 106.172 131.953 105.469Z" fill="black"/>
<path d="M75.4688 76.875L75 87.6563L127.969 108.984C129.844 109.922 131.25 109.453 132.656 108.516L76.1719 76.6406C75.9375 76.4063 75.4688 76.6406 75.4688 76.875Z" fill="black"/>
<path d="M75.4688 76.875C75.4688 76.875 78.5156 82.2656 82.0312 86.0156C86.9531 91.4063 93.5156 95.1562 93.5156 95.1562L127.969 108.984C129.844 109.922 131.25 109.453 132.656 108.516L76.1719 76.6406C75.9375 76.4063 75.4688 76.6406 75.4688 76.875Z" fill="black"/>
<path d="M132.422 106.406C132.422 106.172 132.187 105.938 131.953 105.469L83.6719 70.0781L77.1094 74.2969C77.1094 74.2969 77.5781 74.5313 77.8125 74.2969C78.5156 74.0625 79.9219 73.8281 81.3281 74.2969C82.5 74.7656 132.422 106.641 132.422 106.641V106.406Z" fill="black"/>
<path d="M130.781 104.297L85.7812 68.6719L83.6719 70.0781L131.953 105.703C131.719 105.234 131.25 104.766 130.781 104.297Z" fill="black"/>
<path d="M76.1719 73.3594L75.9375 73.5938C75.9375 73.5938 75.9375 74.0625 76.4062 73.8281C76.6406 73.5938 83.4375 70.0781 85.7812 68.6719L77.5781 12.4219C77.3437 10.3125 76.4062 9.375 74.7656 8.67188L75.7031 73.8281L76.1719 73.3594Z" fill="black"/>
<path d="M72.1875 12.4219V15.4688L67.0312 67.2656C67.0312 67.9688 67.2656 68.6719 67.9688 69.1406L71.0156 71.4844L73.125 14.2969L73.3594 9.84375C72.6562 10.3125 72.4219 11.25 72.1875 12.4219ZM69.375 72.4219L66.5625 70.0781L18.9844 104.531C18.9844 104.531 17.5781 105.469 17.3438 106.406L18.9844 105.469L68.9062 74.0625C69.8438 73.5938 70.0781 73.125 69.375 72.4219Z" fill="black"/>
<path d="M74.2969 76.875C74.2969 76.6406 74.0625 76.4063 73.8281 76.6406L17.1094 108.75C18.5156 109.688 19.9219 109.922 21.7969 109.219L74.7656 87.8906L74.2969 76.875Z" fill="black"/>
<path d="M75.9375 73.5938L76.1719 73.3594L75.9375 73.5938C75.9375 73.5938 75.9375 73.8281 76.1719 73.8281H76.4062C76.6406 73.5938 83.4375 70.0781 85.7812 68.6719L84.8437 61.875L77.5781 12.4219C77.5781 11.4844 77.3437 10.7812 76.875 10.3125C76.875 10.3125 80.3906 57.6562 80.3906 62.8125C80.3906 69.6094 75.9375 73.5938 75.9375 73.5938Z" fill="black"/>
<path d="M74.2969 76.875C74.2969 76.6406 74.0625 76.4063 73.8281 76.6406L17.1094 108.75C18.5156 109.688 19.9219 109.922 21.7969 109.219L74.7656 87.8906L74.2969 76.875Z" fill="black"/>
<path opacity="0.8" d="M21.7969 108.984L74.7656 87.6563L74.2969 77.3438C73.3594 80.1563 71.7188 83.2031 67.2656 85.5469C63.9844 87.4219 32.5781 102.891 21.3281 108.281C20.625 108.75 19.6875 108.984 19.2188 109.219C20.1563 109.688 20.8594 109.453 21.7969 108.984Z" fill="black"/>
<path d="M76.1719 73.3594L75.9375 73.5938C75.9375 73.5938 75.9375 74.0625 76.4062 73.8281C76.6406 73.5938 83.4375 70.0781 85.7812 68.6719L77.5781 12.4219C77.3437 10.3125 76.4062 9.375 74.7656 8.67188L75.7031 73.8281L76.1719 73.3594Z" fill="black"/>
<path d="M76.1719 73.3594L75.9375 73.5938C75.9375 73.5938 75.9375 74.0625 76.4062 73.8281C76.6406 73.5938 83.4375 70.0781 85.7812 68.6719L77.5781 12.4219C77.3437 10.3125 76.4062 9.375 74.7656 8.67188L75.7031 73.8281L76.1719 73.3594Z" fill="black"/>
<path d="M11.9531 104.062C10.3125 100.312 0.937501 82.0312 11.25 46.875H7.26562C5.15625 53.9062 3.51562 58.125 2.57812 64.4531C2.57812 64.4531 2.10938 66.7969 1.875 69.375C1.64063 71.9531 1.64062 73.3594 1.64062 75C1.64062 89.0625 5.15625 97.2656 5.15625 97.2656C8.90625 108.984 15.4687 119.531 24.375 127.5C32.1094 134.297 44.0625 139.453 53.9062 141.328C52.2656 141.094 24.1406 129.141 11.9531 104.062Z" fill="black"/>
<path d="M75.9375 76.4063H73.8281C74.0625 76.4063 74.2969 76.4063 74.2969 76.6406L74.7656 87.4219H75L75.4688 76.6406C75.4688 76.4063 75.7031 76.1719 75.9375 76.4063Z" fill="black"/>
<path d="M98.4375 5.39062C123.047 14.7656 146.25 40.5469 146.25 73.125C146.25 112.5 114.844 144.609 75 144.609V148.359C114.844 148.359 148.359 115.547 148.359 75C148.359 42.6562 127.734 15.4688 98.4375 5.39062Z" fill="black"/>
<path d="M137.812 47.3438C121.406 9.60938 84.375 7.5 82.2656 7.26562H82.0312C110.391 12.4219 128.437 30.9375 134.766 50.3906V50.625C137.578 58.125 138.984 66.0938 139.219 74.7656C139.453 82.9688 137.578 92.1094 134.062 100.547C133.828 101.719 133.594 103.125 133.359 103.125H137.109C148.359 82.0312 143.437 60.7031 137.812 47.3438Z" fill="black"/>
<path d="M5.15625 75.2344C5.15625 36.7969 36.3281 5.15625 75 5.15625C113.672 5.15625 144.844 36.5625 144.844 75.2344C144.844 113.672 113.672 144.844 75 144.844C36.3281 144.844 5.15625 113.672 5.15625 75.2344ZM26.9531 26.9531C14.5312 39.375 6.79688 56.4844 6.79688 75.2344C6.79688 93.9844 14.5312 111.094 26.7187 123.281C39.1406 135.469 56.25 143.203 75 143.203C93.75 143.203 110.859 135.703 123.047 123.281C135.469 111.094 142.969 93.9844 142.969 75.2344C142.969 56.4844 135.234 39.375 123.047 26.9531C110.859 14.5312 93.75 6.79688 75 6.79688C56.25 6.79688 39.1406 14.5312 26.9531 26.9531Z" fill="black"/>
<path d="M18.5156 105L66.3281 70.5469C68.9063 71.9531 73.125 73.8281 73.5938 73.8281C74.0625 74.0625 74.0625 73.5938 74.0625 73.5938L68.2031 68.6719C67.5 68.2031 67.2656 67.5 67.2656 66.7969L72.8906 10.3125C72.6563 10.5469 72.6563 11.0156 72.4219 11.25C72.1875 11.7188 72.1875 11.9531 72.1875 12.4219L63.9844 68.9063L18.9844 104.297C18.75 104.531 18.5156 104.766 18.5156 105Z" fill="black"/>
</svg>
