<svg width="614" height="133" viewBox="0 0 614 133" fill="none" xmlns="http://www.w3.org/2000/svg">
<path d="M0 70.9699C1.44 33.1199 32.24 2.31988 70.09 0.879883C71.45 0.909883 72.55 1.98988 72.55 3.34988V34.7099C72.55 35.9999 71.57 37.0699 70.32 37.2099C52.42 38.4699 37.57 53.3199 36.32 71.2199C36.17 72.4699 35.11 73.4299 33.82 73.4299H2.27C1.02 73.2999 0.03 72.2499 0 70.9699Z" fill="#1C1C1C"/>
<path d="M113.71 62.2299C112.27 100.08 81.4702 130.88 43.6202 132.32C42.2602 132.29 41.1602 131.21 41.1602 129.85V98.4899C41.1602 97.1999 42.1402 96.1299 43.3902 95.9899C61.2902 94.7299 76.1402 79.8799 77.3902 61.9799C77.5402 60.7299 78.6002 59.7699 79.8902 59.7699H111.44C112.69 59.8999 113.68 60.9499 113.71 62.2299Z" fill="#1C1C1C"/>
<path d="M199.27 65.01C196.89 63.74 194.19 62.63 191.17 61.99C188.31 61.2 185.13 60.72 181.96 60.24C178.78 59.76 176.08 59.29 173.7 58.49C171.63 57.85 169.89 57.06 168.78 55.95C167.83 55.16 167.35 53.89 167.35 52.46C167.35 51.19 167.67 49.44 170.53 48.01C173.07 46.74 176.25 46.1 180.06 46.1C183.87 46.1 186.89 46.89 189.75 48.32C192.45 49.91 194.83 51.81 196.74 54.2L197.45 55.17C197.74 55.57 198.33 55.61 198.67 55.25L206.48 47.02C206.73 46.76 206.77 46.36 206.58 46.05L206.11 45.3C203.57 41.65 200.07 38.95 195.79 36.88C191.5 34.97 186.42 34.02 180.54 34.02C175.77 34.02 171.49 34.81 167.51 36.24C163.54 37.67 160.36 39.89 157.98 42.75C155.44 45.61 154.33 49.26 154.33 53.23C154.33 59.11 156.71 63.71 161.32 66.73C165.61 69.59 171.49 71.65 178.63 72.61C184.03 73.4 188.32 74.36 191.34 75.47C194.36 76.74 194.83 78.49 194.83 79.92C194.83 81.51 194.35 82.62 193.08 83.57C191.81 84.68 190.06 85.63 187.84 86.27C185.62 86.91 183.23 87.22 180.85 87.22C176.4 87.22 172.59 86.27 169.57 84.68C166.39 82.93 163.38 80.39 160.52 77.06L159.72 76.17C159.39 75.8 158.81 75.82 158.51 76.21L151.25 85.29C151.01 85.59 151.02 86.01 151.27 86.31L151.79 86.92C155.44 91.21 159.73 94.39 164.5 96.29C169.27 98.2 174.67 99.15 180.54 99.15C185.94 99.15 190.86 98.36 194.84 96.61C198.97 94.86 202.31 92.48 204.53 89.3C206.91 86.12 208.02 82.31 208.02 78.18C208.02 75 207.23 72.3 205.64 70.08C203.89 68.17 201.83 66.43 199.29 65L199.27 65.01Z" fill="#1C1C1C"/>
<path d="M276.86 37.5298C273.84 35.7798 270.35 34.8298 266.53 34.8298H234.45C234.01 34.8298 233.65 35.1898 233.65 35.6298V97.5798C233.65 98.0198 234.01 98.3798 234.45 98.3798H245.72C246.16 98.3798 246.52 98.0198 246.52 97.5798V75.9798H265.42C269.23 75.9798 272.88 75.0298 276.22 73.2798C279.55 71.5298 282.1 68.9898 284.16 65.8098C286.22 62.6298 287.18 58.9798 287.18 55.1698C287.18 51.3598 286.23 47.8598 284.32 44.8498C282.41 41.8298 279.87 39.2898 276.85 37.5398L276.86 37.5298ZM264.95 47.3798C266.54 47.3798 268.13 47.6998 269.56 48.4898C270.99 49.2798 271.94 50.0798 272.89 51.3498C273.68 52.4598 274 53.7298 274 55.1598C274 56.7498 273.68 58.0198 272.89 59.2898C272.1 60.5598 270.99 61.5098 269.56 62.3098C268.13 63.0998 266.7 63.4198 265.11 63.4198H247.84C247.2 63.4198 246.69 62.8998 246.69 62.2698V48.5298C246.69 47.8898 247.21 47.3798 247.84 47.3798H264.95Z" fill="#1C1C1C"/>
<path d="M360.41 67.3897C363.11 63.8997 364.54 59.7697 364.54 55.3197C364.54 51.3497 363.59 47.6997 361.52 44.6797C359.61 41.6597 356.91 39.2797 353.74 37.5297C350.56 35.7797 347.07 34.9897 343.41 34.9897H310.85C310.41 34.9897 310.05 35.3497 310.05 35.7897V97.7397C310.05 98.1797 310.41 98.5397 310.85 98.5397H322.13C322.57 98.5397 322.93 98.1797 322.93 97.7397V77.4497C322.93 76.8097 323.45 76.2997 324.08 76.2997H337.57C337.95 76.2997 338.31 76.4897 338.52 76.7997L353.19 98.1997C353.34 98.4097 353.58 98.5397 353.84 98.5497L367.77 98.6897C368.42 98.6897 368.8 97.9697 368.43 97.4397L352.31 74.2397C355.49 72.4897 358.19 70.2697 360.41 67.4097V67.3897ZM341.19 47.3797C343.09 47.3797 344.68 47.6997 346.27 48.4897C347.86 49.1297 348.97 50.0797 349.76 51.3497C350.55 52.4597 351.03 53.8897 351.03 55.3197C351.03 56.7497 350.71 58.0197 349.92 59.2897C349.13 60.5597 348.01 61.5097 346.74 62.3097C345.31 63.0997 343.88 63.4197 342.13 63.4197H324.22C323.58 63.4197 323.07 62.8997 323.07 62.2697V48.5297C323.07 47.8897 323.59 47.3797 324.22 47.3797H341.18H341.19Z" fill="#1C1C1C"/>
<path d="M392.28 98.6098H439.61C440.05 98.6098 440.41 98.2498 440.41 97.8098V86.8498C440.41 86.4098 440.05 86.0498 439.61 86.0498H405.5C404.86 86.0498 404.35 85.5298 404.35 84.8998V74.5498C404.35 73.9098 404.87 73.3998 405.5 73.3998H434.84C435.28 73.3998 435.64 73.0398 435.64 72.5998V61.6398C435.64 61.1998 435.28 60.8398 434.84 60.8398H405.5C404.86 60.8398 404.35 60.3198 404.35 59.6898V48.7698C404.35 48.1298 404.87 47.6198 405.5 47.6198H439.61C440.05 47.6198 440.41 47.2598 440.41 46.8198V35.8598C440.41 35.4198 440.05 35.0598 439.61 35.0598H392.28C391.84 35.0598 391.48 35.4198 391.48 35.8598V97.8098C391.48 98.2498 391.84 98.6098 392.28 98.6098Z" fill="#1C1C1C"/>
<path d="M488.97 35.2998L461.09 97.2498C460.85 97.7798 461.24 98.3698 461.82 98.3698H473.58C473.89 98.3698 474.18 98.1898 474.3 97.8998L480.27 84.7898C480.47 84.3498 480.91 84.0698 481.39 84.0698H509.03C509.52 84.0698 509.96 84.3598 510.15 84.7998L515.97 97.8898C516.1 98.1798 516.38 98.3598 516.7 98.3598H529.09C529.67 98.3598 530.05 97.7698 529.82 97.2398L502.1 35.2898C501.97 34.9998 501.69 34.8198 501.37 34.8198H489.69C489.38 34.8198 489.09 34.9998 488.96 35.2898L488.97 35.2998ZM502.35 71.5198H487.94C487.11 71.5198 486.55 70.6598 486.89 69.8998L494.16 53.5798C494.57 52.6598 495.87 52.6698 496.27 53.5798L503.41 69.8998C503.74 70.6598 503.19 71.5198 502.35 71.5198Z" fill="#1C1C1C"/>
<path d="M611.32 54.5298C609.89 50.7198 607.83 47.2198 604.97 44.3598C602.11 41.3398 598.62 39.1198 594.48 37.3698C590.35 35.7798 585.43 34.8298 580.02 34.8298H551.27C550.83 34.8298 550.47 35.1898 550.47 35.6298V97.5798C550.47 98.0198 550.83 98.3798 551.27 98.3798H580.02C587.33 98.3798 593.37 96.9498 598.45 94.0898C603.37 91.2298 607.19 87.2598 609.73 82.4898C612.27 77.7198 613.54 72.3198 613.54 66.6098C613.38 62.4798 612.75 58.3498 611.32 54.5398V54.5298ZM563.19 48.5398C563.19 47.8998 563.71 47.3898 564.34 47.3898H579.55C584.47 47.3898 588.45 48.3398 591.46 50.0898C594.48 51.8398 596.54 54.2198 597.97 57.0798C599.4 59.9398 600.04 63.2698 600.04 66.7698C600.04 70.2698 599.4 73.5998 597.97 76.6198C596.54 79.4798 594.48 81.6998 591.46 83.4498C588.44 85.1998 584.47 85.9898 579.55 85.9898H564.34C563.7 85.9898 563.19 85.4698 563.19 84.8398V48.5498V48.5398Z" fill="#1C1C1C"/>
</svg>
