<svg width="82" height="18" viewBox="0 0 82 18" fill="none" xmlns="http://www.w3.org/2000/svg">
<g clip-path="url(#clip0_41_11789)">
<path d="M8.65123 0.00195312C3.87781 0.00195312 0 3.87976 0 8.65319C0 13.4266 3.87781 17.3044 8.65123 17.3044C13.4247 17.3044 17.3025 13.4266 17.3025 8.65319C17.3025 3.87976 13.4247 0.00195312 8.65123 0.00195312ZM8.65123 16.4374C4.3542 16.4374 0.867029 12.9407 0.867029 8.65319C0.867029 4.36568 4.3542 0.868982 8.65123 0.868982C12.9483 0.868982 16.4354 4.36568 16.4354 8.65319C16.4354 12.9407 12.9483 16.4374 8.65123 16.4374Z" fill="black"/>
<path d="M11.7366 3.10746C11.708 3.0884 11.6699 3.07887 11.6318 3.07887C11.5175 3.07887 11.4317 3.16462 11.4317 3.27896V5.98485C11.4317 6.08013 11.3555 6.15635 11.2602 6.15635H6.01995C5.92467 6.15635 5.85798 6.08013 5.84845 5.98485V3.27896C5.84845 3.24085 5.83892 3.21226 5.81987 3.17415C5.7627 3.07887 5.63884 3.05029 5.54356 3.10746C3.60942 4.29843 2.4375 6.36596 2.4375 8.65263C2.4375 10.9393 3.60942 13.0068 5.56262 14.1978C5.5912 14.2169 5.62931 14.2264 5.66742 14.2264C5.78175 14.2264 5.8675 14.1406 5.8675 14.0263V11.3204C5.8675 11.2251 5.94373 11.1584 6.03901 11.1489H11.2793C11.3746 11.1489 11.4508 11.2251 11.4508 11.3204V14.0263C11.4508 14.0644 11.4603 14.093 11.4794 14.1311C11.5365 14.2264 11.6604 14.255 11.7557 14.1978C13.7089 13.0068 14.8808 10.9393 14.8808 8.65263C14.8808 6.36596 13.6898 4.29843 11.7366 3.10746ZM4.85756 12.0445L4.88614 12.3685L4.67653 12.1112C3.06633 10.0818 3.06633 7.21394 4.67653 5.18452L4.85756 4.95585L4.88614 4.92726L4.85756 5.26074C4.82898 5.52752 4.81945 5.80382 4.81945 6.08013V11.2156C4.81945 11.4919 4.8385 11.7682 4.85756 12.0445ZM11.4317 9.94841C11.4317 10.0437 11.3555 10.1199 11.2602 10.1199H6.01995C5.92467 10.1199 5.85798 10.0437 5.84845 9.94841V7.35685C5.84845 7.26157 5.92467 7.18535 6.01995 7.18535H11.2602C11.3555 7.18535 11.4317 7.26157 11.4317 7.35685V9.94841ZM12.6132 12.1112L12.4036 12.3685L12.4322 12.0445C12.4607 11.7777 12.4703 11.5014 12.4703 11.2251V6.08013C12.4703 5.80382 12.4607 5.52752 12.4322 5.26074L12.4226 5.11782L12.4131 4.96538V4.92726L12.6132 5.18452C13.3945 6.15635 13.8232 7.39496 13.8232 8.6431C13.8232 9.89124 13.3945 11.1394 12.6132 12.1112Z" fill="black"/>
<path d="M30.3558 8.5009C30.3081 8.48184 30.251 8.46278 30.251 8.40562C30.251 8.36751 30.27 8.33892 30.3081 8.31987C30.3748 8.29128 32.0231 7.70056 32.0231 5.75689C32.0231 3.59408 30.5654 2.30783 28.1072 2.30783H22.1523V15.0179H28.6503C30.5463 15.0179 32.5853 13.6745 32.5853 11.5117C32.5853 9.44415 31.0227 8.72003 30.3558 8.5009ZM25.1536 4.90892C25.1536 4.86128 25.1917 4.82317 25.2393 4.82317H27.6022C28.3835 4.82317 28.9171 5.3472 28.9171 6.12848C28.9171 6.73825 28.4407 7.39567 27.5451 7.39567H25.2393C25.1917 7.39567 25.1536 7.35756 25.1536 7.30992V4.90892ZM27.6022 12.5121H25.2393C25.1917 12.5121 25.1536 12.474 25.1536 12.4263V9.89195C25.1536 9.84431 25.1917 9.8062 25.2393 9.8062H27.5451C28.6789 9.8062 29.3268 10.2921 29.3268 11.1496C29.3268 12.0357 28.7265 12.5121 27.6022 12.5121ZM52.6984 7.36709L52.2411 7.27181C51.2121 7.05267 50.2117 6.77637 50.2117 5.89028C50.2117 5.0042 51.0406 4.60403 51.86 4.60403C52.8223 4.60403 53.7751 5.03278 54.4992 5.77595L56.3857 3.9085C55.5758 3.01289 54.1371 1.98389 51.8124 1.98389C49.0112 1.98389 47.1247 3.57503 47.1247 5.94745C47.1247 8.45326 49.0969 9.39651 50.7548 9.74904L51.2026 9.84431C52.8128 10.1873 53.575 10.4446 53.575 11.3592C53.575 12.1786 52.8414 12.7217 51.7552 12.7217C50.4785 12.7217 49.3447 12.1596 48.4872 11.102L46.553 12.998C47.582 14.2176 48.9445 15.3228 51.7933 15.3228C54.2229 15.3228 56.6906 13.9127 56.6906 11.2068C56.6811 8.4342 54.7946 7.80537 52.6984 7.36709ZM77.8042 2.30783V6.95739C77.8042 7.00503 77.7661 7.04314 77.7184 7.04314H73.812C73.7644 7.04314 73.7263 7.00503 73.7263 6.95739V2.30783H70.5249V15.0179H73.7263V10.0253C73.7263 9.9777 73.7644 9.93959 73.812 9.93959H77.7184C77.7661 9.93959 77.8042 9.9777 77.8042 10.0253V15.0179H81.0246V2.30783H77.8042ZM64.0842 12.4168C62.6455 12.4168 61.0924 11.2163 61.0924 8.57712C61.0924 6.16659 62.5502 4.90892 63.9889 4.90892C65.0369 4.90892 65.7706 5.3472 66.3518 6.31903L68.8099 4.68978C67.5523 2.84139 66.0564 2.00294 63.9698 2.00294C59.8824 2.00294 58.0531 5.30909 58.0531 8.57712C58.0531 12.5502 60.4731 15.3228 63.9317 15.3228C66.5042 15.3228 67.6761 14.3795 68.9052 12.636L66.428 10.9686C65.8754 11.8642 65.2751 12.4168 64.0842 12.4168ZM39.7788 1.98389C36.2821 1.98389 33.9382 4.6612 33.9382 8.65334C33.9382 12.6455 36.2821 15.3228 39.7788 15.3228C43.2755 15.3228 45.6193 12.6455 45.6193 8.65334C45.6193 4.6612 43.2755 1.98389 39.7788 1.98389ZM39.7788 12.4168C38.0638 12.4168 36.9585 10.94 36.9585 8.65334C36.9585 6.3762 38.0638 4.90892 39.7788 4.90892C41.5033 4.90892 42.618 6.3762 42.618 8.65334C42.618 10.94 41.5033 12.4168 39.7788 12.4168Z" fill="black"/>
</g>
<defs>
<clipPath id="clip0_41_11789">
<rect width="81.0243" height="17.3068" fill="white"/>
</clipPath>
</defs>
</svg>
