<svg width="82" height="7" viewBox="0 0 82 7" fill="none" xmlns="http://www.w3.org/2000/svg">
<g clip-path="url(#clip0_41_11767)">
<path fill-rule="evenodd" clip-rule="evenodd" d="M0 0.205286C1.20808 0.141839 2.65539 -0.105706 3.63309 0.793986C4.79541 1.94486 4.79905 4.0776 3.66326 5.2498C2.69284 6.20306 1.22265 5.86347 0.000520053 5.92171V0.205286H0ZM0.924655 0.878755C0.924655 2.31254 0.924655 3.74477 0.924655 5.177C1.68549 5.16088 2.64135 5.26541 3.138 4.55085C3.72462 3.65064 3.7137 2.35831 3.10628 1.47058C2.60079 0.784625 1.67301 0.892276 0.924655 0.878235V0.878755Z" fill="black"/>
<path fill-rule="evenodd" clip-rule="evenodd" d="M6.53125 5.92361C7.19692 3.99265 7.87299 2.06377 8.5423 0.132812C8.83457 0.132812 9.12684 0.134373 9.41911 0.136453C10.0848 2.06533 10.7608 3.99265 11.4265 5.92361C11.1129 5.92361 10.7978 5.92361 10.4826 5.92361C10.3365 5.46544 10.1888 5.00935 10.0354 4.55327C9.33122 4.55327 8.62499 4.55327 7.92031 4.55171C7.76378 5.00779 7.61192 5.46596 7.45903 5.92361C7.14907 5.92361 6.83912 5.92361 6.53125 5.92361ZM8.14602 3.80335C8.69519 3.80179 9.24645 3.80179 9.79771 3.79971C9.52832 2.92966 9.25373 2.06169 8.97862 1.19528C8.69883 2.06325 8.42372 2.9333 8.1455 3.80335H8.14602Z" fill="black"/>
<path d="M14.0637 0.132812C14.3721 0.132812 14.6784 0.132812 14.9862 0.132812C14.9878 2.06377 14.9878 3.99265 14.9862 5.92361C14.6779 5.92361 14.3715 5.92361 14.0637 5.92361C14.0621 3.99265 14.0621 2.06377 14.0637 0.132812Z" fill="black"/>
<path d="M18.493 0.132908C18.8908 0.132908 19.2871 0.132908 19.6849 0.131348C20.2097 1.50169 20.7276 2.87359 21.2555 4.24237C21.7875 2.87203 22.3071 1.49805 22.8474 0.131348C23.2364 0.132908 23.6259 0.132908 24.0149 0.132908C24.1278 2.06387 24.2458 3.99275 24.3529 5.92214C24.0799 5.9237 23.8069 5.9237 23.5339 5.92578C23.4262 4.40151 23.3383 2.87723 23.2312 1.35503C22.6591 2.88087 22.0689 4.39995 21.488 5.92214C21.3684 5.9237 21.1286 5.9237 21.009 5.92578C20.4281 4.40359 19.8488 2.87931 19.271 1.35503C19.181 2.87931 19.0791 4.40359 18.9855 5.92734C18.7072 5.92578 18.4306 5.9237 18.1523 5.92006C18.2616 3.99119 18.3775 2.06179 18.4925 0.132908H18.493Z" fill="black"/>
<path d="M27.4265 0.132812C27.7416 0.132812 28.0568 0.132812 28.3719 0.132812C28.3756 1.81259 28.3719 3.49236 28.3735 5.17213C29.2207 5.17369 30.0694 5.16849 30.9166 5.17733C30.8989 5.36299 30.8656 5.73587 30.8479 5.92361C29.7069 5.92361 28.5675 5.92517 27.4265 5.92361C27.4265 3.99265 27.4249 2.06377 27.4265 0.132812Z" fill="black"/>
<path d="M33.4148 0.133018C34.5594 0.131457 35.7025 0.133018 36.845 0.133018C36.8627 0.384203 36.882 0.633309 36.8996 0.884495C36.0384 0.884495 35.1793 0.884495 34.3181 0.884495C34.3165 1.43107 34.3165 1.97557 34.3181 2.52006C34.8532 2.52006 35.3889 2.52006 35.9225 2.52006C35.9225 2.78529 35.9225 3.05052 35.924 3.31575C35.3889 3.31575 34.8532 3.31575 34.3181 3.31575C34.3165 3.93461 34.3165 4.55347 34.3181 5.17234C35.2037 5.17234 36.0878 5.17598 36.9735 5.16714C36.9594 5.41832 36.9454 5.66951 36.9314 5.92017C35.7602 5.92745 34.5875 5.92381 33.4148 5.92381C33.4148 3.99285 33.4132 2.06398 33.4148 0.133018Z" fill="black"/>
<path fill-rule="evenodd" clip-rule="evenodd" d="M39.5742 0.221184C40.5322 0.113533 41.5359 0.0391649 42.4694 0.330915C43.4133 0.666869 43.7424 1.92592 43.239 2.75176C43.0435 3.09136 42.6841 3.27338 42.3711 3.48036C42.8464 4.29372 43.3222 5.10709 43.7955 5.92409C43.4382 5.92409 43.0825 5.92409 42.7268 5.92409C42.278 5.14245 41.8302 4.35925 41.3762 3.58125C41.0767 3.58125 40.7776 3.58125 40.4796 3.58281C40.4781 4.36237 40.4781 5.14245 40.4796 5.92409C40.1785 5.92409 39.8774 5.92409 39.5763 5.92409C39.5747 4.02329 39.5779 2.1225 39.5747 0.221704L39.5742 0.221184ZM40.4791 0.884252C40.4776 1.53328 40.4776 2.18231 40.4791 2.83081C41.0444 2.80429 41.6784 2.93534 42.1838 2.61135C42.7211 2.21195 42.6014 1.25349 41.9691 1.02155C41.4885 0.874891 40.9742 0.927936 40.4791 0.883732V0.884252Z" fill="black"/>
<path d="M50.5607 0.132812C51.8957 0.132812 53.2301 0.132812 54.5651 0.132812C54.5651 0.383998 54.5651 0.633104 54.5666 0.88273C54.0523 0.88429 53.5385 0.88429 53.0242 0.88637C53.0242 2.56458 53.0257 4.24436 53.0242 5.92413C52.7231 5.92413 52.4219 5.92413 52.1224 5.92413C52.1224 4.24436 52.1224 2.56458 52.1224 0.88481C51.6013 0.88481 51.0797 0.88481 50.5586 0.88325C50.5586 0.634144 50.5586 0.384518 50.5602 0.133333L50.5607 0.132812Z" fill="black"/>
<path fill-rule="evenodd" clip-rule="evenodd" d="M56.9849 0.221316C57.934 0.115225 58.9257 0.0429375 59.8535 0.317006C60.8765 0.633718 61.2025 2.03058 60.5982 2.85799C60.3938 3.13934 60.0751 3.29639 59.7901 3.47841C60.2727 4.29177 60.748 5.10878 61.227 5.92214C60.8676 5.9237 60.5103 5.9237 60.1525 5.92578C59.7001 5.14622 59.2596 4.35938 58.8072 3.58138C58.5076 3.58138 58.2086 3.58138 57.9106 3.58294C57.909 4.3625 57.909 5.14258 57.9106 5.92422C57.6006 5.92422 57.2922 5.92422 56.9859 5.92422C56.9844 4.02343 56.9859 2.12263 56.9844 0.221836L56.9849 0.221316ZM57.9111 0.884384C57.9095 1.53341 57.9095 2.18244 57.9111 2.83094C58.4728 2.79922 59.1156 2.94432 59.6086 2.59952C60.2019 2.1892 59.9768 1.12153 59.2742 0.980074C58.8233 0.902066 58.3636 0.914547 57.9111 0.884384Z" fill="black"/>
<path d="M63.3754 0.132844C63.6817 0.132844 63.9901 0.132844 64.298 0.132844C64.3281 1.53335 64.2418 2.93697 64.3385 4.33384C64.4847 5.28137 65.751 5.49356 66.4427 5.01979C66.867 4.74052 66.9143 4.18354 66.918 3.72017C66.9232 2.52509 66.9128 1.32793 66.9195 0.132324C67.2191 0.132324 67.5181 0.132324 67.8192 0.132324C67.7875 1.60876 67.8931 3.09247 67.7594 4.56318C67.3174 6.5347 63.9168 6.53626 63.4466 4.58086C63.3057 3.10443 63.4009 1.61396 63.3743 0.132324L63.3754 0.132844Z" fill="black"/>
<path d="M70.4029 1.19558C71.0228 0.0410647 72.6709 -0.323493 73.7313 0.424864C74.1998 0.748337 74.3616 1.31936 74.4812 1.84461C74.2222 1.86073 73.9632 1.87477 73.7063 1.89037C73.5669 1.61267 73.4879 1.28191 73.2377 1.07857C72.623 0.613644 71.6068 0.809704 71.2688 1.52582C70.7774 2.46659 70.7846 3.683 71.3005 4.61286C71.6932 5.32377 72.792 5.47562 73.3573 4.8942C73.5914 4.60765 73.6512 4.22958 73.7552 3.88478C74.023 3.89362 74.2924 3.90402 74.5633 3.91494C74.4505 4.62066 74.2357 5.43038 73.5633 5.79806C72.505 6.32695 71.0504 5.98736 70.4341 4.94205C69.7721 3.82445 69.7825 2.3267 70.4024 1.19506L70.4029 1.19558Z" fill="black"/>
<path d="M76.5798 0.132451C76.8794 0.132451 77.1784 0.132451 77.4816 0.132451C77.4831 0.928133 77.4779 1.72381 77.4852 2.52106C77.7161 2.48413 77.9398 2.39884 78.0734 2.1955C78.6455 1.50747 79.2076 0.812681 79.7849 0.130371C80.1391 0.131931 80.4927 0.131931 80.8484 0.131931C80.0772 1.03734 79.3075 1.94432 78.5378 2.85129C79.3637 3.87528 80.1916 4.8951 81.0138 5.92273C80.6123 5.92273 80.2145 5.92273 79.8161 5.92273C79.2102 5.12704 78.6101 4.32772 78.0058 3.53204C77.8841 3.35002 77.6922 3.24549 77.5076 3.14148C77.4566 4.06822 77.4883 4.99651 77.4811 5.92273C77.18 5.92273 76.8788 5.92273 76.5793 5.92273C76.5777 3.99177 76.5777 2.06289 76.5793 0.131931L76.5798 0.132451Z" fill="black"/>
</g>
<defs>
<clipPath id="clip0_41_11767">
<rect width="81.0243" height="6.08463" fill="white"/>
</clipPath>
</defs>
</svg>
