<svg width="60" height="60" viewBox="0 0 60 60" fill="none" xmlns="http://www.w3.org/2000/svg">
<path d="M59.3437 30C59.3437 46.2187 46.2187 59.3437 30 59.3437C13.7812 59.3437 0.65625 46.2187 0.65625 30C0.65625 13.7812 13.7812 0.65625 30 0.65625C46.2187 0.65625 59.3437 13.7812 59.3437 30ZM30 2.4375C14.7187 2.4375 2.4375 14.7187 2.4375 30C2.4375 45.2812 14.8125 57.5625 30 57.5625C45.2812 57.5625 57.5625 45.1875 57.5625 30C57.5625 14.7187 45.2812 2.4375 30 2.4375Z" fill="black"/>
<path d="M30 2.4375C14.7188 2.4375 2.4375 14.7188 2.4375 30C2.4375 45.2813 14.8125 57.5625 30 57.5625C45.2813 57.5625 57.5625 45.1875 57.5625 30C57.5625 14.7188 45.2813 2.4375 30 2.4375ZM30 55.7813C15.75 55.7813 4.21875 44.25 4.21875 30C4.21875 15.75 15.75 4.21875 30 4.21875C44.25 4.21875 55.7813 15.75 55.7813 30C55.7813 44.25 44.25 55.7813 30 55.7813Z" fill="black"/>
<path d="M2.0625 30.0937C2.0625 14.7187 14.5312 2.0625 30 2.0625C45.4687 2.0625 57.9375 14.625 57.9375 30.0937C57.9375 45.4687 45.4687 57.9375 30 57.9375C14.5312 57.9375 2.0625 45.4687 2.0625 30.0937ZM10.7812 10.7812C5.8125 15.75 2.71875 22.5937 2.71875 30.0937C2.71875 37.5937 5.8125 44.4375 10.6875 49.3125C15.6562 54.1875 22.5 57.2812 30 57.2812C37.5 57.2812 44.3437 54.2812 49.2187 49.3125C54.1875 44.4375 57.1875 37.5937 57.1875 30.0937C57.1875 22.5937 54.0937 15.75 49.2187 10.7812C44.3437 5.8125 37.5 2.71875 30 2.71875C22.5 2.71875 15.6562 5.8125 10.7812 10.7812Z" fill="black"/>
<path d="M52.7813 42.1875C52.3125 41.8125 34.2188 27.4687 34.2188 27.4687L30 3.375C29.7188 3.46875 29.3438 3.75 29.1563 4.125L26.1562 27.5625L7.5 41.9063C7.5 41.9063 7.125 42.375 6.9375 42.6563C6.84375 42.8438 6.84375 43.125 6.84375 43.4063L29.9063 33.9375L52.9688 43.4063C53.1563 42.9375 52.9688 42.4688 52.7813 42.1875Z" fill="black"/>
<path d="M30.1875 30.7503L30 35.0628L51.1875 43.594C51.9375 43.969 52.5 43.7815 53.0625 43.4065L30.4687 30.6565C30.375 30.5628 30.1875 30.6565 30.1875 30.7503V30.7503Z" fill="black"/>
<path d="M30.1875 30.7503C30.1875 30.7503 31.4062 32.9065 32.8125 34.4065C34.7813 36.5628 37.4063 38.0628 37.4063 38.0628L51.1875 43.594C51.9375 43.969 52.5 43.7815 53.0625 43.4065L30.4687 30.6565C30.375 30.5628 30.1875 30.6565 30.1875 30.7503V30.7503Z" fill="black"/>
<path d="M52.9687 42.5625C52.9687 42.4688 52.875 42.375 52.7812 42.1875L33.4687 28.0312L30.8438 29.7188C30.8438 29.7188 31.0312 29.8125 31.125 29.7188C31.4062 29.625 31.9687 29.5313 32.5312 29.7188C33 29.9063 52.9687 42.6563 52.9687 42.6563V42.5625Z" fill="black"/>
<path d="M52.3125 41.7188L34.3125 27.4688L33.4688 28.0313L52.7812 42.2812C52.6875 42.0937 52.5 41.9063 52.3125 41.7188V41.7188Z" fill="black"/>
<path d="M30.4688 29.3437L30.375 29.4375C30.375 29.4375 30.375 29.625 30.5625 29.5312C30.6562 29.4375 33.375 28.0312 34.3125 27.4687L31.0312 4.96875C30.9375 4.125 30.5625 3.75 29.9062 3.46875L30.2812 29.5312L30.4688 29.3437V29.3437Z" fill="black"/>
<path d="M28.875 4.96875V6.1875L26.8125 26.9063C26.8125 27.1875 26.9063 27.4688 27.1875 27.6563L28.4062 28.5938L29.25 5.71875L29.3437 3.9375C29.0625 4.125 28.9687 4.5 28.875 4.96875V4.96875ZM27.75 28.9688L26.625 28.0313L7.59375 41.8125C7.59375 41.8125 7.03125 42.1875 6.9375 42.5625L7.59375 42.1875L27.5625 29.625C27.9375 29.4375 28.0313 29.25 27.75 28.9688V28.9688Z" fill="black"/>
<path d="M29.7187 30.7503C29.7187 30.6565 29.625 30.5628 29.5312 30.6565L6.84375 43.5003C7.40625 43.8753 7.96875 43.969 8.71875 43.6878L29.9062 35.1565L29.7187 30.7503V30.7503Z" fill="black"/>
<path d="M30.375 29.4375L30.4687 29.3437L30.375 29.4375C30.375 29.4375 30.375 29.5313 30.4687 29.5313H30.5625C30.6562 29.4375 33.375 28.0312 34.3125 27.4687L33.9375 24.75L31.0312 4.96875C31.0312 4.59375 30.9375 4.3125 30.75 4.125C30.75 4.125 32.1562 23.0625 32.1562 25.125C32.1562 27.8437 30.375 29.4375 30.375 29.4375V29.4375Z" fill="black"/>
<path d="M29.7187 30.7503C29.7187 30.6565 29.625 30.5628 29.5312 30.6565L6.84375 43.5003C7.40625 43.8753 7.96875 43.969 8.71875 43.6878L29.9062 35.1565L29.7187 30.7503V30.7503Z" fill="black"/>
<path opacity="0.8" d="M8.71875 43.5938L29.9063 35.0625L29.7188 30.9375C29.3438 32.0625 28.6875 33.2813 26.9063 34.2188C25.5938 34.9688 13.0313 41.1563 8.53125 43.3125C8.25 43.5 7.875 43.5937 7.6875 43.6875C8.0625 43.875 8.34375 43.7813 8.71875 43.5938Z" fill="black"/>
<path d="M30.4688 29.3437L30.375 29.4375C30.375 29.4375 30.375 29.625 30.5625 29.5312C30.6562 29.4375 33.375 28.0312 34.3125 27.4687L31.0312 4.96875C30.9375 4.125 30.5625 3.75 29.9062 3.46875L30.2812 29.5312L30.4688 29.3437V29.3437Z" fill="black"/>
<path d="M30.4688 29.3437L30.375 29.4375C30.375 29.4375 30.375 29.625 30.5625 29.5312C30.6562 29.4375 33.375 28.0312 34.3125 27.4687L31.0312 4.96875C30.9375 4.125 30.5625 3.75 29.9062 3.46875L30.2812 29.5312L30.4688 29.3437V29.3437Z" fill="black"/>
<path d="M4.78125 41.625C4.125 40.125 0.375 32.8125 4.5 18.75H2.90625C2.0625 21.5625 1.40625 23.25 1.03125 25.7812C1.03125 25.7812 0.84375 26.7187 0.75 27.75C0.65625 28.7812 0.65625 29.3437 0.65625 30C0.65625 35.625 2.0625 38.9062 2.0625 38.9062C3.5625 43.5937 6.1875 47.8125 9.75 51C12.8437 53.7187 17.625 55.7812 21.5625 56.5312C20.9062 56.4375 9.65625 51.6562 4.78125 41.625V41.625Z" fill="black"/>
<path d="M30.375 30.5628H29.5312C29.625 30.5628 29.7188 30.5628 29.7188 30.6565L29.9062 34.969H30L30.1875 30.6565C30.1875 30.5628 30.2813 30.469 30.375 30.5628V30.5628Z" fill="black"/>
<path d="M39.375 2.15625C49.2187 5.90625 58.5 16.2188 58.5 29.25C58.5 45 45.9375 57.8438 30 57.8438V59.3438C45.9375 59.3438 59.3437 46.2188 59.3437 30C59.3437 17.0625 51.0937 6.1875 39.375 2.15625V2.15625Z" fill="black"/>
<path d="M55.125 18.9375C48.5625 3.84375 33.75 3 32.9062 2.90625H32.8125C44.1562 4.96875 51.375 12.375 53.9062 20.1563V20.25C55.0312 23.25 55.5937 26.4375 55.6875 29.9063C55.7812 33.1875 55.0312 36.8438 53.625 40.2188C53.5312 40.6875 53.4375 41.25 53.3438 41.25H54.8437C59.3437 32.8125 57.375 24.2813 55.125 18.9375V18.9375Z" fill="black"/>
<path d="M2.0625 30.0937C2.0625 14.7187 14.5312 2.0625 30 2.0625C45.4687 2.0625 57.9375 14.625 57.9375 30.0937C57.9375 45.4687 45.4687 57.9375 30 57.9375C14.5312 57.9375 2.0625 45.4687 2.0625 30.0937ZM10.7812 10.7812C5.8125 15.75 2.71875 22.5937 2.71875 30.0937C2.71875 37.5937 5.8125 44.4375 10.6875 49.3125C15.6562 54.1875 22.5 57.2812 30 57.2812C37.5 57.2812 44.3437 54.2812 49.2187 49.3125C54.1875 44.4375 57.1875 37.5937 57.1875 30.0937C57.1875 22.5937 54.0937 15.75 49.2187 10.7812C44.3437 5.8125 37.5 2.71875 30 2.71875C22.5 2.71875 15.6562 5.8125 10.7812 10.7812Z" fill="black"/>
<path d="M7.40625 42.0005L26.5313 28.2192C27.5625 28.7817 29.25 29.5317 29.4375 29.5317C29.625 29.6255 29.625 29.438 29.625 29.438L27.2813 27.4692C27 27.2817 26.9063 27.0005 26.9063 26.7192L29.1563 4.12549C29.0625 4.21924 29.0625 4.40674 28.9688 4.50049C28.875 4.68799 28.875 4.78174 28.875 4.96924L25.5938 27.563L7.59375 41.7192C7.5 41.813 7.40625 41.9067 7.40625 42.0005V42.0005Z" fill="black"/>
</svg>
