<svg width="82" height="24" viewBox="0 0 82 24" fill="none" xmlns="http://www.w3.org/2000/svg">
<path d="M8.50684 17.1656C8.50676 18.1438 7.93721 18.6346 7.50586 18.8453L0.295898 22.0543C0.14448 22.1192 0.000138481 22.0021 0 21.8599V15.107C0.0118723 14.5318 0.3632 13.7635 1.41797 13.3677L8.50684 10.733V17.1656ZM15.3154 0.021055C15.4737 -0.0426961 15.5961 0.0427702 15.5957 0.217344V4.59234C15.5955 5.67502 15.1545 6.49551 14.5303 6.79059L8.50684 9.47418L1.41797 12.6714C0.241024 13.1934 0.0118908 13.9733 0 14.5484V8.00738C0.000162437 7.47271 0.280091 6.71412 1.41895 6.20855L15.3154 0.021055Z" fill="black"/>
<path d="M16.6252 18.1744H15.7773C15.6133 18.1744 15.5117 18.0829 15.5117 17.8675V12.1125C15.5117 11.3359 15.7976 10.9476 16.6463 10.9476H17.4224C18.4246 10.9476 19.1097 11.0399 19.498 11.1934C20.2746 11.51 20.5407 12.2259 20.5407 13.1045C20.5407 13.984 20.2438 14.7193 19.3855 15.0773L20.7759 17.5922C20.8371 17.7043 20.9184 17.8375 20.9184 17.9602C20.9184 18.0627 20.8472 18.1339 20.7658 18.1441C20.6739 18.1647 19.9576 18.1951 19.743 18.1951C19.5592 18.1951 19.4571 18.1032 19.3855 17.9602L18.0464 15.3332C17.8727 15.3433 17.6885 15.3433 17.4844 15.3433H16.922V17.8675C16.9215 18.0724 16.7989 18.1744 16.6252 18.1744ZM17.5249 14.2184C17.9642 14.2184 18.3221 14.178 18.5574 14.0957C18.8846 13.9735 19.0886 13.6362 19.0886 13.1762C19.0886 12.6345 18.9246 12.3385 18.5772 12.2154C18.3727 12.1433 18.0557 12.123 17.6572 12.123H17.2584C17.013 12.123 16.9211 12.2356 16.9211 12.4608V14.2189L17.5249 14.2184ZM23.1264 18.1744H22.2684C22.1044 18.1744 22.0028 18.0829 22.0028 17.8675V11.244C22.0028 11.0602 22.0846 10.9375 22.2786 10.9375H23.158C23.352 10.9375 23.4135 11.05 23.4135 11.2343V13.8099H26.2143V11.244C26.2143 11.0602 26.2961 10.9375 26.501 10.9375H27.3691C27.5634 10.9375 27.6246 11.05 27.6246 11.2343V17.8675C27.6246 18.0623 27.5129 18.1744 27.3387 18.1744H26.49C26.3264 18.1744 26.2143 18.0829 26.2143 17.8675V15.0465H23.4135V17.8675C23.4127 18.0623 23.3005 18.1744 23.1264 18.1744ZM30.3945 18.1643C29.6791 18.1643 29.3009 17.878 29.3009 17.0706V12.072C29.3009 11.3051 29.6487 10.9476 30.3945 10.9476H33.4604C33.6553 10.9476 33.7472 11.0092 33.7472 11.2237V11.9392C33.7472 12.1129 33.6553 12.1745 33.4604 12.1745H31.0383C30.8237 12.1745 30.7111 12.2871 30.7111 12.5527V13.8099H33.2054C33.3892 13.8099 33.4912 13.871 33.4912 14.0852V14.8011C33.4912 14.9748 33.3896 15.046 33.2054 15.046H30.7111V16.5385C30.7111 16.8143 30.8136 16.9374 31.0994 16.9374H33.635C33.8184 16.9374 33.9209 16.9884 33.9209 17.2131V17.9185C33.9209 18.0926 33.8285 18.1643 33.635 18.1643H30.3945ZM36.3914 18.1744H35.533C35.369 18.1744 35.2674 18.0829 35.2674 17.8675V11.244C35.2674 11.0602 35.3492 10.9375 35.5431 10.9375H36.4221C36.6165 10.9375 36.6781 11.05 36.6781 11.2343V17.8675C36.6781 18.0623 36.5659 18.1744 36.3914 18.1744ZM39.5228 18.1744H38.7049C38.5413 18.1744 38.4393 18.0829 38.4393 17.8675V11.868C38.4393 11.2237 38.6943 10.9067 39.3794 10.9067H39.7677C40.3504 10.9067 40.4837 11.1622 40.6877 11.5914C42.3332 14.9647 42.6296 15.6498 42.9467 16.4163C42.9159 15.4862 42.9159 14.5966 42.9159 11.3152C42.9159 11.0905 43.0184 10.937 43.2228 10.937H43.9898C44.1942 10.937 44.265 11.0804 44.265 11.2849V17.4387C44.265 18.1133 43.8873 18.236 43.4682 18.236H43.1516C42.5584 18.236 42.3847 18.0315 42.0984 17.4488C40.2686 13.7074 40.1055 13.3187 39.7884 12.5628C39.7985 13.2677 39.8086 13.9629 39.8086 17.8675C39.8091 18.0623 39.6965 18.1744 39.5228 18.1744ZM47.1366 18.1744H46.2681C46.1041 18.1744 46.0227 18.0623 46.0227 17.8675V11.9392C46.0227 11.4076 46.1551 10.9067 47.0245 10.9067H47.3314C48.0464 10.9067 48.0979 11.0905 48.4448 11.9696C49.1502 13.7782 49.3551 14.3213 49.5592 14.944C49.7839 14.3007 49.9479 13.7993 50.6533 11.9489C50.9391 11.193 51.0415 10.9062 51.8186 10.9062H52.166C52.9945 10.9062 53.0455 11.3148 53.0455 11.9388V17.8367C53.0455 18.0825 52.9435 18.174 52.7588 18.174H51.8995C51.7363 18.174 51.6343 18.0825 51.6343 17.8468C51.6343 14.167 51.6444 13.3495 51.6752 12.3376C51.4193 13.1753 51.2152 13.7778 50.2645 16.283C50.1009 16.7118 49.9892 16.8855 49.6313 16.8855H49.4673C49.13 16.8855 48.9769 16.7219 48.8336 16.3235C47.9242 13.8701 47.6894 13.2365 47.3824 12.3376C47.4132 13.3495 47.4132 14.2281 47.4132 17.8776C47.4132 18.0416 47.3415 18.1744 47.1366 18.1744ZM55.8154 18.1643C55.1 18.1643 54.7222 17.878 54.7222 17.0706V12.072C54.7222 11.3051 55.0696 10.9476 55.8154 10.9476H58.8818C59.0757 10.9476 59.1676 11.0092 59.1676 11.2237V11.9392C59.1676 12.1129 59.0757 12.1745 58.8818 12.1745H56.4592C56.2446 12.1745 56.1321 12.2871 56.1321 12.5527V13.8099H58.6263C58.8101 13.8099 58.9126 13.871 58.9126 14.0852V14.8011C58.9126 14.9748 58.8101 15.046 58.6263 15.046H56.1321V16.5385C56.1321 16.8143 56.2336 16.9374 56.5204 16.9374H59.0555C59.2389 16.9374 59.3422 16.9884 59.3422 17.2131V17.9185C59.3422 18.0926 59.2494 18.1643 59.0555 18.1643H55.8154ZM62.9912 18.1744H62.1232C61.9587 18.1744 61.847 18.0728 61.847 17.8675V12.1745H60.5238C60.3303 12.1745 60.2375 12.1129 60.2375 11.9392V11.2237C60.2375 11.0092 60.3303 10.9476 60.5238 10.9476H64.9323C65.1262 10.9476 65.219 11.0171 65.1491 11.2237L64.8975 11.9392C64.8439 12.1107 64.7524 12.1745 64.5576 12.1745H63.2775V17.8675C63.2775 18.0724 63.1553 18.1744 62.9912 18.1744ZM66.1244 17.8472C66.0431 18.093 65.982 18.1946 65.7766 18.1946C65.573 18.1946 64.898 18.1744 64.7652 18.1436C64.6526 18.1128 64.6223 18.0209 64.6223 17.9391C64.6223 17.8472 64.6526 17.7241 64.6935 17.612L66.697 11.7853C66.901 11.193 67.0545 10.9062 67.7906 10.9062H68.1178C68.8029 10.9062 68.905 11.1723 69.0993 11.7545L71.0619 17.5908C71.1028 17.703 71.1336 17.8156 71.1336 17.9281C71.1336 18.0099 71.0927 18.1018 70.9999 18.1427C70.8777 18.1937 70.2849 18.1937 69.9885 18.1937C69.7845 18.1937 69.7123 18.0922 69.631 17.8463L69.1099 16.3033H66.6258L66.1244 17.8472ZM68.7928 15.108C68.2304 13.309 68.0563 12.7365 67.8931 12.1331C67.7291 12.7264 67.5457 13.3187 66.9732 15.108H68.7928ZM73.0865 18.1643C72.3917 18.1643 72.0144 17.8569 72.0144 17.1212V11.244C72.0144 11.0602 72.0958 10.9375 72.2893 10.9375H73.1683C73.3631 10.9375 73.4243 11.05 73.4243 11.2343V16.5592C73.4243 16.8046 73.5263 16.9374 73.802 16.9374H75.8517C76.035 16.9374 76.1371 16.9884 76.1371 17.2131V17.9185C76.1371 18.0926 76.035 18.1643 75.8517 18.1643H73.0865ZM77.9774 18.1643C77.2817 18.1643 76.904 17.8569 76.904 17.1212V11.244C76.904 11.0602 76.9853 10.9375 77.1797 10.9375H78.0592C78.2531 10.9375 78.3142 11.05 78.3142 11.2343V16.5592C78.3142 16.8046 78.4167 16.9374 78.6915 16.9374H80.7412C80.9255 16.9374 81.0275 16.9884 81.0275 17.2131V17.9185C81.0275 18.0926 80.9255 18.1643 80.7412 18.1643H77.9774Z" fill="black"/>
<path d="M18.1622 23.4254C18.1354 23.4681 18.0817 23.5002 18.0281 23.527C17.8302 23.6128 17.3702 23.7143 16.8034 23.7143C15.825 23.7143 15.3008 23.2706 15.3008 21.8155C15.3008 20.4145 15.7128 19.7993 16.9591 19.7993C17.3117 19.7993 17.6759 19.8314 17.8896 19.885C17.9863 19.9118 18.018 19.9492 18.018 20.0077C18.018 20.0614 17.9969 20.1845 17.9648 20.2702C17.9538 20.3072 17.9217 20.3287 17.879 20.3287C17.8364 20.3287 17.7774 20.3182 17.697 20.3019C17.5474 20.2751 17.2796 20.2329 16.927 20.2329C15.9965 20.2329 15.8144 20.8586 15.8144 21.7355C15.8144 22.6132 15.9428 23.2869 16.8623 23.2869C17.2365 23.2869 17.456 23.2438 17.6328 23.1954C17.7185 23.1739 17.7555 23.1365 17.7555 23.0244V22.0829H16.9692C16.8997 22.0829 16.8729 22.0455 16.8729 21.987V21.735C16.8729 21.6656 16.905 21.6335 16.9745 21.6335H18.087C18.1675 21.6335 18.2044 21.6708 18.2044 21.7619V23.2385C18.2049 23.3181 18.1996 23.3718 18.1622 23.4254ZM19.4151 23.6554H19.153C19.0782 23.6554 19.0413 23.6123 19.0413 23.527V20.4035C19.0413 20.0504 19.164 19.8683 19.5545 19.8683H19.9713C20.4265 19.8683 20.7629 19.9057 20.966 19.9862C21.3724 20.1467 21.5065 20.4831 21.5065 20.9387C21.5065 21.4576 21.2818 21.8102 20.8108 21.965L21.6239 23.4039C21.6507 23.4575 21.6881 23.5055 21.6881 23.5639C21.6881 23.6013 21.6613 23.6339 21.6292 23.6391C21.5865 23.6497 21.3724 23.6607 21.2976 23.6607C21.2229 23.6607 21.1802 23.6286 21.1371 23.5481L20.3293 22.0455C20.2277 22.0565 20.1156 22.0565 20.0034 22.0565H19.5382V23.527C19.5382 23.6075 19.4951 23.6554 19.4151 23.6554ZM20.025 21.6387C20.3192 21.6387 20.5223 21.6071 20.6613 21.5534C20.864 21.4734 20.9929 21.2702 20.9929 20.965C20.9929 20.5961 20.8697 20.4466 20.6719 20.3714C20.5492 20.3234 20.3403 20.3019 20.0408 20.3019H19.7361C19.5914 20.3019 19.5382 20.3661 19.5382 20.4998V21.6392L20.025 21.6387ZM23.6467 23.7143C22.6089 23.7143 22.1116 23.3076 22.1116 21.735C22.1116 20.1361 22.7853 19.7988 23.689 19.7988C24.7211 19.7988 25.2241 20.0825 25.2241 21.7302C25.2241 23.297 24.7215 23.7143 23.6467 23.7143ZM23.6731 20.2329C22.999 20.2329 22.6252 20.4892 22.6252 21.7355C22.6252 23.0516 22.9832 23.2812 23.6573 23.2812C24.3152 23.2812 24.7052 23.0785 24.7052 21.7412C24.7052 20.4571 24.4225 20.2329 23.6731 20.2329ZM28.7289 22.1365C28.7289 22.6765 28.7074 22.9654 28.5737 23.2007C28.3811 23.5433 27.9695 23.7196 27.3279 23.7196C26.7663 23.7196 26.3011 23.6018 26.0975 23.1629C25.991 22.9276 25.98 22.564 25.98 22.1466V19.98C25.98 19.9162 26.0117 19.8573 26.0975 19.8573H26.3758C26.4506 19.8573 26.4774 19.9057 26.4774 19.98V22.2962C26.4774 22.6009 26.4989 22.8362 26.5953 22.9861C26.7179 23.1787 26.9642 23.2799 27.3547 23.2799C27.6278 23.2799 27.9857 23.2372 28.1247 23.0019C28.2157 22.8524 28.2478 22.6493 28.2478 22.312V19.9796C28.2478 19.9158 28.2799 19.8569 28.3652 19.8569H28.6273C28.7021 19.8569 28.7289 19.9052 28.7289 19.9796V22.1365ZM30.0723 23.6554H29.8102C29.7355 23.6554 29.6981 23.6123 29.6981 23.527V20.4035C29.6981 20.0451 29.816 19.8683 30.206 19.8683H30.6823C31.1365 19.8683 31.4738 19.9114 31.677 19.9914C32.078 20.1572 32.217 20.5152 32.217 20.9646C32.217 21.4835 31.9976 21.8419 31.5055 21.9914C31.3234 22.0451 31.0455 22.0772 30.7139 22.0772H30.1955V23.5266C30.1955 23.6075 30.1524 23.6554 30.0723 23.6554ZM30.746 21.6603C31.0398 21.6603 31.2381 21.6335 31.3718 21.5802C31.575 21.4945 31.7029 21.2913 31.7029 20.9919C31.7029 20.6229 31.5692 20.4571 31.3766 20.3767C31.2588 20.3287 31.0345 20.3019 30.7192 20.3019H30.3714C30.2482 20.3019 30.195 20.3503 30.195 20.4998V21.6607L30.746 21.6603Z" fill="black"/>
</svg>
