<svg width="150" height="26" viewBox="0 0 150 26" fill="none" xmlns="http://www.w3.org/2000/svg">
<g clip-path="url(#clip0_4078_32519)">
<path d="M8.06533 25.1759H0V0H8.06533V12.3618V25.1759ZM34.0704 25.1759L18.5427 12.3618L34.0704 0H22.6884L8.06533 12.3618L22.6884 25.1759H34.0704ZM70.6281 16.3568V0H62.5628V14.9246C62.5628 18.0905 61.3568 19.0704 58.0402 19.0704H50.1256C46.809 19.0704 45.603 18.0905 45.603 14.9246V0H37.6131V16.3568C37.6131 22.6131 40.9296 25.6281 48.3166 25.6281H59.8492C67.2362 25.6281 70.6281 22.6131 70.6281 16.3568ZM84.9497 25.1759H76.8844V0H84.9497V12.3618V25.1759ZM110.955 25.1759L95.4271 12.3618L110.955 0H99.5729L84.9497 12.3618L99.5729 25.1759H110.955ZM133.869 0H126.784L111.03 25.1759H120.302L122.94 20.804H137.864L140.503 25.1759H149.774L133.869 0ZM125.578 15.7538L130.251 7.76382L134.925 15.7538H125.578Z" fill="black"/>
</g>
<defs>
<clipPath id="clip0_4078_32519">
<rect width="150" height="25.6281" fill="white"/>
</clipPath>
</defs>
</svg>
