<svg width="150" height="44" viewBox="0 0 150 44" fill="none" xmlns="http://www.w3.org/2000/svg">
<g clip-path="url(#clip0_4078_32553)">
<path d="M15.749 31.7793C15.749 33.5902 14.6941 34.4986 13.8955 34.8887L0.547852 40.8291C0.267118 40.9502 0.000129377 40.7343 0 40.4707V27.9678C0.0219808 26.9029 0.670992 25.4817 2.62402 24.749L15.749 19.8701V31.7793ZM28.3525 0.0390625C28.6455 -0.0789234 28.8727 0.0794704 28.8721 0.402344V8.50195C28.872 10.5069 28.0544 12.0251 26.8984 12.5713L15.749 17.54L2.62402 23.459C0.444671 24.4253 0.0219808 25.8697 0 26.9346V14.8252C9.4483e-05 13.8353 0.517097 12.4312 2.62598 11.4951L28.3525 0.0390625Z" fill="black"/>
<path d="M30.7713 33.6469H29.2017C28.898 33.6469 28.71 33.4776 28.71 33.0786V22.4245C28.71 20.9868 29.2391 20.2679 30.8103 20.2679H32.2472C34.1026 20.2679 35.3709 20.4389 36.0898 20.723C37.5275 21.3092 38.02 22.6345 38.02 24.2611C38.02 25.8893 37.4705 27.2505 35.8814 27.9132L38.4556 32.569C38.5687 32.7766 38.7194 33.0233 38.7194 33.2504C38.7194 33.4401 38.5875 33.572 38.4369 33.5907C38.2667 33.629 36.9405 33.6852 36.5433 33.6852C36.203 33.6852 36.0141 33.515 35.8814 33.2504L33.4024 28.387C33.0809 28.4057 32.7398 28.4057 32.362 28.4057H31.3208V33.0786C31.32 33.458 31.0928 33.6469 30.7713 33.6469ZM32.4369 26.3232C33.2502 26.3232 33.9129 26.2483 34.3484 26.0961C34.9541 25.8698 35.3319 25.2454 35.3319 24.3938C35.3319 23.3908 35.0282 22.8429 34.3851 22.615C34.0065 22.4815 33.4195 22.444 32.682 22.444H31.9436C31.4893 22.444 31.3192 22.6524 31.3192 23.0693V26.324L32.4369 26.3232ZM42.807 33.6469H41.2186C40.915 33.6469 40.7269 33.4776 40.7269 33.0786V20.8166C40.7269 20.4763 40.8784 20.2492 41.2374 20.2492H42.8656C43.2246 20.2492 43.3386 20.4576 43.3386 20.7987V25.5669H48.5236V20.8166C48.5236 20.4763 48.675 20.2492 49.0544 20.2492H50.6614C51.0213 20.2492 51.1344 20.4576 51.1344 20.7987V33.0786C51.1344 33.4393 50.9276 33.6469 50.6052 33.6469H49.034C48.7312 33.6469 48.5236 33.4776 48.5236 33.0786V27.8562H43.3386V33.0786C43.3369 33.4393 43.1293 33.6469 42.807 33.6469ZM56.2624 33.6282C54.9379 33.6282 54.2378 33.0982 54.2378 31.6035V22.3496C54.2378 20.9298 54.8817 20.2679 56.2624 20.2679H61.9384C62.299 20.2679 62.4692 20.3819 62.4692 20.7792V22.1037C62.4692 22.4253 62.299 22.5393 61.9384 22.5393H57.4543C57.057 22.5393 56.8486 22.7477 56.8486 23.2394V25.5669H61.4662C61.8065 25.5669 61.9954 25.6801 61.9954 26.0766V27.4019C61.9954 27.7235 61.8073 27.8554 61.4662 27.8554H56.8486V30.6184C56.8486 31.1289 57.0383 31.3568 57.5674 31.3568H62.2616C62.601 31.3568 62.7907 31.4513 62.7907 31.8673V33.1731C62.7907 33.4955 62.6198 33.6282 62.2616 33.6282H56.2624ZM67.3644 33.6469H65.7752C65.4716 33.6469 65.2835 33.4776 65.2835 33.0786V20.8166C65.2835 20.4763 65.4349 20.2492 65.794 20.2492H67.4213C67.7812 20.2492 67.8952 20.4576 67.8952 20.7987V33.0786C67.8952 33.4393 67.6876 33.6469 67.3644 33.6469ZM73.1616 33.6469H71.6474C71.3445 33.6469 71.1556 33.4776 71.1556 33.0786V21.9718C71.1556 20.7792 71.6278 20.1922 72.8962 20.1922H73.615C74.6937 20.1922 74.9404 20.6652 75.3181 21.4598C78.3645 27.7048 78.9132 28.9731 79.5002 30.3921C79.4432 28.6703 79.4432 27.0234 79.4432 20.9485C79.4432 20.5325 79.6329 20.2484 80.0114 20.2484H81.4312C81.8098 20.2484 81.9409 20.5138 81.9409 20.8923V32.2849C81.9409 33.5337 81.2415 33.7609 80.4657 33.7609H79.8796C78.7813 33.7609 78.4598 33.3823 77.9298 32.3036C74.5423 25.3772 74.2403 24.6576 73.6533 23.2581C73.672 24.5631 73.6907 25.8502 73.6907 33.0786C73.6916 33.4393 73.4832 33.6469 73.1616 33.6469ZM87.257 33.6469H85.6491C85.3454 33.6469 85.1948 33.4393 85.1948 33.0786V22.1037C85.1948 21.1195 85.4399 20.1922 87.0494 20.1922H87.6176C88.9413 20.1922 89.0366 20.5325 89.6789 22.1599C90.9847 25.5083 91.3641 26.5137 91.7418 27.6665C92.1578 26.4755 92.4615 25.5474 93.7673 22.1216C94.2965 20.7222 94.4862 20.1914 95.9247 20.1914H96.5678C98.1016 20.1914 98.196 20.9477 98.196 22.1029V33.0217C98.196 33.4767 98.0072 33.6461 97.6653 33.6461H96.0745C95.7725 33.6461 95.5836 33.4767 95.5836 33.0404C95.5836 26.228 95.6023 24.7146 95.6593 22.8413C95.1855 24.3922 94.8077 25.5075 93.0477 30.1454C92.7448 30.9392 92.538 31.2608 91.8754 31.2608H91.5717C90.9473 31.2608 90.664 30.9579 90.3986 30.2203C88.715 25.6785 88.2803 24.5053 87.712 22.8413C87.769 24.7146 87.769 26.3411 87.769 33.0974C87.769 33.401 87.6363 33.6469 87.257 33.6469ZM103.324 33.6282C102 33.6282 101.3 33.0982 101.3 31.6035V22.3496C101.3 20.9298 101.943 20.2679 103.324 20.2679H109.001C109.36 20.2679 109.53 20.3819 109.53 20.7792V22.1037C109.53 22.4253 109.36 22.5393 109.001 22.5393H104.516C104.119 22.5393 103.91 22.7477 103.91 23.2394V25.5669H108.528C108.868 25.5669 109.058 25.6801 109.058 26.0766V27.4019C109.058 27.7235 108.868 27.8554 108.528 27.8554H103.91V30.6184C103.91 31.1289 104.098 31.3568 104.629 31.3568H109.322C109.662 31.3568 109.853 31.4513 109.853 31.8673V33.1731C109.853 33.4955 109.681 33.6282 109.322 33.6282H103.324ZM116.609 33.6469H115.002C114.697 33.6469 114.49 33.4588 114.49 33.0786V22.5393H112.041C111.682 22.5393 111.511 22.4253 111.511 22.1037V20.7792C111.511 20.3819 111.682 20.2679 112.041 20.2679H120.202C120.561 20.2679 120.733 20.3966 120.603 20.7792L120.138 22.1037C120.038 22.4212 119.869 22.5393 119.508 22.5393H117.139V33.0786C117.139 33.458 116.912 33.6469 116.609 33.6469ZM122.409 33.0412C122.258 33.4963 122.145 33.6843 121.765 33.6843C121.388 33.6843 120.139 33.6469 119.893 33.5899C119.684 33.5329 119.628 33.3628 119.628 33.2113C119.628 33.0412 119.684 32.8132 119.76 32.6057L123.469 21.8188C123.847 20.7222 124.131 20.1914 125.494 20.1914H126.099C127.368 20.1914 127.557 20.6839 127.916 21.7618L131.55 32.5666C131.626 32.7742 131.683 32.9826 131.683 33.191C131.683 33.3424 131.607 33.5126 131.435 33.5883C131.209 33.6827 130.111 33.6827 129.563 33.6827C129.185 33.6827 129.051 33.4947 128.901 33.0396L127.936 30.1829H123.337L122.409 33.0412ZM127.349 27.9702C126.308 24.6397 125.985 23.5797 125.683 22.4628C125.38 23.561 125.04 24.6576 123.98 27.9702H127.349ZM135.298 33.6282C134.012 33.6282 133.313 33.0591 133.313 31.6971V20.8166C133.313 20.4763 133.464 20.2492 133.822 20.2492H135.449C135.81 20.2492 135.923 20.4576 135.923 20.7987V30.6567C135.923 31.111 136.112 31.3568 136.623 31.3568H140.417C140.757 31.3568 140.945 31.4513 140.945 31.8673V33.1731C140.945 33.4955 140.757 33.6282 140.417 33.6282H135.298ZM144.352 33.6282C143.064 33.6282 142.365 33.0591 142.365 31.6971V20.8166C142.365 20.4763 142.516 20.2492 142.876 20.2492H144.504C144.863 20.2492 144.976 20.4576 144.976 20.7987V30.6567C144.976 31.111 145.166 31.3568 145.674 31.3568H149.469C149.81 31.3568 149.999 31.4513 149.999 31.8673V33.1731C149.999 33.4955 149.81 33.6282 149.469 33.6282H144.352Z" fill="black"/>
<path d="M33.6084 43.368C33.5587 43.4469 33.4594 43.5064 33.3601 43.556C32.9938 43.7148 32.1422 43.9028 31.0928 43.9028C29.2814 43.9028 28.311 43.0814 28.311 40.3875C28.311 37.7938 29.0738 36.6549 31.381 36.6549C32.0339 36.6549 32.708 36.7143 33.1037 36.8136C33.2828 36.8633 33.3414 36.9325 33.3414 37.0408C33.3414 37.1401 33.3023 37.368 33.2429 37.5268C33.2225 37.5952 33.1631 37.635 33.0841 37.635C33.0051 37.635 32.8961 37.6155 32.7471 37.5854C32.4703 37.5357 31.9745 37.4576 31.3216 37.4576C29.5989 37.4576 29.2619 38.616 29.2619 40.2394C29.2619 41.8643 29.4996 43.1115 31.2019 43.1115C31.8947 43.1115 32.3009 43.0317 32.6282 42.9422C32.787 42.9023 32.8554 42.8331 32.8554 42.6255V40.8825H31.3997C31.2711 40.8825 31.2215 40.8133 31.2215 40.705V40.2385C31.2215 40.1099 31.2809 40.0505 31.4095 40.0505H33.4692C33.6182 40.0505 33.6866 40.1197 33.6866 40.2882V43.022C33.6874 43.1693 33.6776 43.2686 33.6084 43.368ZM35.9278 43.7937H35.4426C35.3042 43.7937 35.2358 43.7139 35.2358 43.556V37.7734C35.2358 37.1197 35.4629 36.7827 36.1858 36.7827H36.9576C37.8002 36.7827 38.423 36.8519 38.7991 37.0009C39.5513 37.298 39.7996 37.9208 39.7996 38.7642C39.7996 39.7248 39.3836 40.3778 38.5117 40.6643L40.017 43.3281C40.0667 43.4274 40.1359 43.5161 40.1359 43.6244C40.1359 43.6936 40.0862 43.7538 40.0268 43.7636C39.9478 43.7831 39.5513 43.8035 39.4129 43.8035C39.2746 43.8035 39.1956 43.7441 39.1158 43.5951L37.6203 40.8133C37.4322 40.8337 37.2246 40.8337 37.017 40.8337H36.1557V43.556C36.1557 43.705 36.0759 43.7937 35.9278 43.7937ZM37.0569 40.0603C37.6016 40.0603 37.9777 40.0016 38.2349 39.9023C38.6102 39.7542 38.8488 39.378 38.8488 38.8131C38.8488 38.13 38.6208 37.8532 38.2545 37.714C38.0273 37.6253 37.6406 37.5854 37.0862 37.5854H36.5221C36.2542 37.5854 36.1557 37.7042 36.1557 37.9517V40.0611L37.0569 40.0603ZM43.7619 43.9028C41.8406 43.9028 40.9199 43.1498 40.9199 40.2385C40.9199 37.2785 42.1671 36.6541 43.84 36.6541C45.7507 36.6541 46.6821 37.1792 46.6821 40.2296C46.6821 43.1302 45.7516 43.9028 43.7619 43.9028ZM43.8107 37.4576C42.5627 37.4576 41.8707 37.9322 41.8707 40.2394C41.8707 42.676 42.5334 43.1009 43.7814 43.1009C44.9993 43.1009 45.7214 42.7256 45.7214 40.2499C45.7214 37.8728 45.198 37.4576 43.8107 37.4576ZM53.1705 40.9818C53.1705 41.9815 53.1306 42.5164 52.8831 42.9519C52.5265 43.5861 51.7645 43.9126 50.5767 43.9126C49.5371 43.9126 48.6758 43.6944 48.2989 42.8819C48.1019 42.4464 48.0815 41.7731 48.0815 41.0005V36.9895C48.0815 36.8714 48.1401 36.7623 48.2989 36.7623H48.8142C48.9526 36.7623 49.0023 36.8519 49.0023 36.9895V41.2773C49.0023 41.8415 49.0422 42.2771 49.2204 42.5547C49.4476 42.9112 49.9035 43.0985 50.6264 43.0985C51.132 43.0985 51.7946 43.0195 52.0519 42.584C52.2204 42.3072 52.2798 41.9311 52.2798 41.3066V36.9887C52.2798 36.8706 52.3393 36.7615 52.4972 36.7615H52.9824C53.1208 36.7615 53.1705 36.8511 53.1705 36.9887V40.9818ZM55.6575 43.7937H55.1723C55.0339 43.7937 54.9647 43.7139 54.9647 43.556V37.7734C54.9647 37.11 55.1829 36.7827 55.905 36.7827H56.7867C57.6277 36.7827 58.2521 36.8625 58.6282 37.0106C59.3707 37.3175 59.6279 37.9802 59.6279 38.8122C59.6279 39.7729 59.2217 40.4364 58.3107 40.7132C57.9737 40.8125 57.4592 40.8719 56.8453 40.8719H55.8855V43.5552C55.8855 43.705 55.8057 43.7937 55.6575 43.7937ZM56.9048 40.1001C57.4486 40.1001 57.8157 40.0505 58.0632 39.952C58.4393 39.7932 58.6762 39.4171 58.6762 38.8627C58.6762 38.1797 58.4288 37.8728 58.0722 37.7238C57.854 37.635 57.4388 37.5854 56.8551 37.5854H56.2111C55.9832 37.5854 55.8847 37.6749 55.8847 37.9517V40.101L56.9048 40.1001Z" fill="black"/>
</g>
<defs>
<clipPath id="clip0_4078_32553">
<rect width="150" height="43.9135" fill="white"/>
</clipPath>
</defs>
</svg>
